Armada-Compressed.ufo
<glyph name="exclam" format="1">
  <advance width="75"/>
  <unicode hex="0021"/>
  <outline>
    <contour>
      <point x="60" y="155" type="line"/>
      <point x="15" y="155" type="line"/>
      <point x="15" y="720" type="line"/>
      <point x="60" y="720" type="line"/>
    </contour>
    <contour>
      <point x="60" y="0" type="line"/>
      <point x="15" y="0" type="line"/>
      <point x="15" y="110" type="line"/>
      <point x="60" y="110" type="line"/>
    </contour>
  </outline>
</glyph>
<glyph name="quotedbl" format="1">
  <advance width="150"/>
  <unicode hex="0022"/>
  <outline>
    <contour>
      <point x="136" y="480" type="line"/>
      <point x="90" y="480" type="line"/>
      <point x="90" y="720" type="line"/>
      <point x="136" y="720" type="line"/>
    </contour>
    <contour>
      <point x="61" y="480" type="line"/>
      <point x="15" y="480" type="line"/>
      <point x="15" y="720" type="line"/>
      <point x="61" y="720" type="line"/>
    </contour>
  </outline>
</glyph>
<glyph name="numbersign" format="1">
  <advance width="170"/>
  <unicode hex="0023"/>
  <outline>
    <contour>
      <point x="165" y="220" type="line"/>
      <point x="145" y="220" type="line"/>
      <point x="145" y="0" type="line"/>
      <point x="101" y="0" type="line"/>
      <point x="101" y="220" type="line"/>
      <point x="69" y="220" type="line"/>
      <point x="69" y="0" type="line"/>
      <point x="25" y="0" type="line"/>
      <point x="25" y="220" type="line"/>
      <point x="5" y="220" type="line"/>
      <point x="5" y="262" type="line"/>
      <point x="25" y="262" type="line"/>
      <point x="25" y="464" type="line"/>
      <point x="5" y="464" type="line"/>
      <point x="5" y="505" type="line"/>
      <point x="25" y="505" type="line"/>
      <point x="25" y="720" type="line"/>
      <point x="69" y="720" type="line"/>
      <point x="69" y="505" type="line"/>
      <point x="101" y="505" type="line"/>
      <point x="101" y="720" type="line"/>
      <point x="145" y="720" type="line"/>
      <point x="145" y="505" type="line"/>
      <point x="165" y="505" type="line"/>
      <point x="165" y="464" type="line"/>
      <point x="145" y="464" type="line"/>
      <point x="145" y="262" type="line"/>
      <point x="165" y="262" type="line"/>
    </contour>
    <contour>
      <point x="101" y="262" type="line"/>
      <point x="101" y="464" type="line"/>
      <point x="69" y="464" type="line"/>
      <point x="69" y="262" type="line"/>
    </contour>
  </outline>
</glyph>
<glyph name="dollar" format="1">
  <advance width="150"/>
  <unicode hex="0024"/>
  <outline>
    <contour>
      <point x="135" y="18" type="line"/>
      <point x="123" y="7"/>
      <point x="109" y="1"/>
      <point x="95" y="-1" type="curve"/>
      <point x="95" y="-75" type="line"/>
      <point x="55" y="-75" type="line"/>
      <point x="55" y="-1" type="line"/>
      <point x="41" y="1"/>
      <point x="27" y="7"/>
      <point x="15" y="18" type="curve"/>
      <point x="15" y="272" type="line"/>
      <point x="60" y="272" type="line"/>
      <point x="60" y="39" type="line"/>
      <point x="65" y="36"/>
      <point x="69" y="35"/>
      <point x="75" y="35" type="curve" smooth="yes"/>
      <point x="81" y="35"/>
      <point x="85" y="36"/>
      <point x="90" y="39" type="curve"/>
      <point x="90" y="294" type="line"/>
      <point x="15" y="444" type="line"/>
      <point x="15" y="702" type="line"/>
      <point x="27" y="713"/>
      <point x="41" y="719"/>
      <point x="55" y="721" type="curve"/>
      <point x="55" y="795" type="line"/>
      <point x="95" y="795" type="line"/>
      <point x="95" y="721" type="line"/>
      <point x="109" y="719"/>
      <point x="123" y="713"/>
      <point x="135" y="702" type="curve"/>
      <point x="135" y="448" type="line"/>
      <point x="90" y="448" type="line"/>
      <point x="90" y="681" type="line"/>
      <point x="85" y="684"/>
      <point x="81" y="685"/>
      <point x="75" y="685" type="curve" smooth="yes"/>
      <point x="69" y="685"/>
      <point x="65" y="684"/>
      <point x="60" y="681" type="curve"/>
      <point x="60" y="451" type="line"/>
      <point x="135" y="301" type="line"/>
    </contour>
  </outline>
</glyph>
<glyph name="ampersand" format="1">
  <advance width="155"/>
  <unicode hex="0026"/>
  <outline>
    <contour>
      <point x="152" y="347" type="line"/>
      <point x="135" y="347" type="line"/>
      <point x="135" y="16" type="line"/>
      <point x="117" y="0"/>
      <point x="96" y="-5"/>
      <point x="75" y="-5" type="curve" smooth="yes"/>
      <point x="54" y="-5"/>
      <point x="33" y="0"/>
      <point x="15" y="16" type="curve"/>
      <point x="15" y="343" type="line"/>
      <point x="24" y="353"/>
      <point x="36" y="361"/>
      <point x="49" y="365" type="curve"/>
      <point x="36" y="369"/>
      <point x="23" y="377"/>
      <point x="15" y="387" type="curve"/>
      <point x="15" y="704" type="line"/>
      <point x="33" y="720"/>
      <point x="54" y="725"/>
      <point x="75" y="725" type="curve" smooth="yes"/>
      <point x="96" y="725"/>
      <point x="117" y="720"/>
      <point x="135" y="704" type="curve"/>
      <point x="135" y="448" type="line"/>
      <point x="90" y="448" type="line"/>
      <point x="90" y="683" type="line"/>
      <point x="85" y="686"/>
      <point x="81" y="687"/>
      <point x="75" y="687" type="curve" smooth="yes"/>
      <point x="69" y="687"/>
      <point x="65" y="686"/>
      <point x="60" y="683" type="curve"/>
      <point x="60" y="398" type="line"/>
      <point x="68" y="388"/>
      <point x="78" y="385"/>
      <point x="88" y="385" type="curve" smooth="yes"/>
      <point x="152" y="385" type="line"/>
    </contour>
    <contour>
      <point x="90" y="37" type="curve"/>
      <point x="90" y="347" type="line"/>
      <point x="88" y="347" type="line" smooth="yes"/>
      <point x="78" y="347"/>
      <point x="68" y="344"/>
      <point x="60" y="334" type="curve"/>
      <point x="60" y="37" type="line"/>
      <point x="65" y="34"/>
      <point x="69" y="33"/>
      <point x="75" y="33" type="curve" smooth="yes"/>
      <point x="81" y="33"/>
      <point x="85" y="34"/>
    </contour>
  </outline>
</glyph>
<glyph name="parenleft" format="1">
  <advance width="105"/>
  <unicode hex="0028"/>
  <outline>
    <contour>
      <point x="95" y="-3" type="line"/>
      <point x="56" y="-3"/>
      <point x="30" y="9"/>
      <point x="15" y="32" type="curve"/>
      <point x="15" y="688" type="line"/>
      <point x="30" y="711"/>
      <point x="56" y="723"/>
      <point x="95" y="723" type="curve"/>
      <point x="95" y="680" type="line"/>
      <point x="82" y="680"/>
      <point x="69" y="677"/>
      <point x="60" y="668" type="curve"/>
      <point x="60" y="52" type="line"/>
      <point x="69" y="43"/>
      <point x="82" y="40"/>
      <point x="95" y="40" type="curve"/>
    </contour>
  </outline>
</glyph>
<glyph name="parenright" format="1">
  <advance width="105"/>
  <unicode hex="0029"/>
  <outline>
    <contour>
      <point x="90" y="32" type="line"/>
      <point x="75" y="9"/>
      <point x="49" y="-3"/>
      <point x="10" y="-3" type="curve"/>
      <point x="10" y="40" type="line"/>
      <point x="23" y="40"/>
      <point x="36" y="43"/>
      <point x="45" y="52" type="curve"/>
      <point x="45" y="668" type="line"/>
      <point x="36" y="677"/>
      <point x="23" y="680"/>
      <point x="10" y="680" type="curve"/>
      <point x="10" y="723" type="line"/>
      <point x="49" y="723"/>
      <point x="75" y="711"/>
      <point x="90" y="688" type="curve"/>
    </contour>
  </outline>
</glyph>
<glyph name="asterisk" format="1">
  <advance width="180"/>
  <unicode hex="002A"/>
  <outline>
    <contour>
      <point x="165" y="360" type="line"/>
      <point x="129" y="360" type="line"/>
      <point x="129" y="476" type="line"/>
      <point x="123" y="483"/>
      <point x="116" y="487"/>
      <point x="108" y="489" type="curve"/>
      <point x="108" y="300" type="line"/>
      <point x="72" y="300" type="line"/>
      <point x="72" y="490" type="line"/>
      <point x="64" y="487"/>
      <point x="57" y="483"/>
      <point x="51" y="476" type="curve"/>
      <point x="51" y="360" type="line"/>
      <point x="15" y="360" type="line"/>
      <point x="15" y="483" type="line"/>
      <point x="22" y="492"/>
      <point x="37" y="504"/>
      <point x="57" y="510" type="curve"/>
      <point x="37" y="516"/>
      <point x="22" y="528"/>
      <point x="15" y="538" type="curve"/>
      <point x="15" y="660" type="line"/>
      <point x="51" y="660" type="line"/>
      <point x="51" y="544" type="line"/>
      <point x="57" y="537"/>
      <point x="64" y="532"/>
      <point x="72" y="530" type="curve"/>
      <point x="72" y="720" type="line"/>
      <point x="108" y="720" type="line"/>
      <point x="108" y="530" type="line"/>
      <point x="116" y="532"/>
      <point x="123" y="537"/>
      <point x="129" y="544" type="curve"/>
      <point x="129" y="660" type="line"/>
      <point x="165" y="660" type="line"/>
      <point x="165" y="538" type="line"/>
      <point x="158" y="528"/>
      <point x="143" y="516"/>
      <point x="123" y="510" type="curve"/>
      <point x="143" y="504"/>
      <point x="158" y="492"/>
      <point x="165" y="483" type="curve"/>
    </contour>
  </outline>
</glyph>
<glyph name="plus" format="1">
  <advance width="120"/>
  <unicode hex="002B"/>
  <outline>
    <contour>
      <point x="115" y="350" type="line"/>
      <point x="81" y="350" type="line"/>
      <point x="81" y="231" type="line"/>
      <point x="39" y="231" type="line"/>
      <point x="39" y="350" type="line"/>
      <point x="5" y="350" type="line"/>
      <point x="5" y="392" type="line"/>
      <point x="39" y="392" type="line"/>
      <point x="39" y="511" type="line"/>
      <point x="81" y="511" type="line"/>
      <point x="81" y="392" type="line"/>
      <point x="115" y="392" type="line"/>
    </contour>
  </outline>
</glyph>
<glyph name="comma" format="1">
  <advance width="75"/>
  <unicode hex="002C"/>
  <outline>
    <contour>
      <point x="65" y="110" type="line"/>
      <point x="49" y="-65" type="line"/>
      <point x="3" y="-65" type="line"/>
      <point x="19" y="110" type="line"/>
    </contour>
  </outline>
</glyph>
<glyph name="hyphen" format="1">
  <advance width="75"/>
  <unicode hex="002D"/>
  <unicode hex="2010"/>
  <unicode hex="2011"/>
  <outline>
    <contour>
      <point x="70" y="296" type="line"/>
      <point x="5" y="296" type="line"/>
      <point x="5" y="339" type="line"/>
      <point x="70" y="339" type="line"/>
    </contour>
  </outline>
</glyph>
<glyph name="period" format="1">
  <advance width="75"/>
  <unicode hex="002E"/>
  <outline>
    <contour>
      <point x="61" y="0" type="line"/>
      <point x="15" y="0" type="line"/>
      <point x="15" y="110" type="line"/>
      <point x="61" y="110" type="line"/>
    </contour>
  </outline>
</glyph>
<glyph name="one" format="1">
  <advance width="118"/>
  <unicode hex="0031"/>
  <outline>
    <contour>
      <point x="113" y="0" type="line"/>
      <point x="8" y="0" type="line"/>
      <point x="8" y="43" type="line"/>
      <point x="38" y="43" type="line"/>
      <point x="38" y="678" type="line"/>
      <point x="8" y="678" type="line"/>
      <point x="8" y="720" type="line"/>
      <point x="83" y="720" type="line"/>
      <point x="83" y="43" type="line"/>
      <point x="113" y="43" type="line"/>
    </contour>
  </outline>
</glyph>
<glyph name="three" format="1">
  <advance width="150"/>
  <unicode hex="0033"/>
  <outline>
    <contour>
      <point x="135" y="16" type="line"/>
      <point x="117" y="0"/>
      <point x="96" y="-5"/>
      <point x="75" y="-5" type="curve" smooth="yes"/>
      <point x="54" y="-5"/>
      <point x="33" y="0"/>
      <point x="15" y="16" type="curve"/>
      <point x="15" y="272" type="line"/>
      <point x="60" y="272" type="line"/>
      <point x="60" y="37" type="line"/>
      <point x="65" y="34"/>
      <point x="69" y="33"/>
      <point x="75" y="33" type="curve" smooth="yes"/>
      <point x="81" y="33"/>
      <point x="85" y="34"/>
      <point x="90" y="37" type="curve"/>
      <point x="90" y="334" type="line"/>
      <point x="82" y="344"/>
      <point x="72" y="347"/>
      <point x="62" y="347" type="curve" smooth="yes"/>
      <point x="39" y="347" type="line"/>
      <point x="39" y="385" type="line"/>
      <point x="62" y="385" type="line" smooth="yes"/>
      <point x="72" y="385"/>
      <point x="82" y="388"/>
      <point x="90" y="398" type="curve"/>
      <point x="90" y="683" type="line"/>
      <point x="85" y="686"/>
      <point x="81" y="687"/>
      <point x="75" y="687" type="curve" smooth="yes"/>
      <point x="69" y="687"/>
      <point x="65" y="686"/>
      <point x="60" y="683" type="curve"/>
      <point x="60" y="448" type="line"/>
      <point x="15" y="448" type="line"/>
      <point x="15" y="704" type="line"/>
      <point x="33" y="720"/>
      <point x="54" y="725"/>
      <point x="75" y="725" type="curve" smooth="yes"/>
      <point x="96" y="725"/>
      <point x="117" y="720"/>
      <point x="135" y="704" type="curve"/>
      <point x="135" y="387" type="line"/>
      <point x="127" y="377"/>
      <point x="114" y="369"/>
      <point x="101" y="365" type="curve"/>
      <point x="114" y="361"/>
      <point x="126" y="353"/>
      <point x="135" y="343" type="curve"/>
    </contour>
  </outline>
</glyph>
<glyph name="four" format="1">
  <advance width="150"/>
  <unicode hex="0034"/>
  <outline>
    <contour>
      <point x="135" y="0" type="line"/>
      <point x="90" y="0" type="line"/>
      <point x="90" y="230" type="line"/>
      <point x="15" y="230" type="line"/>
      <point x="15" y="720" type="line"/>
      <point x="60" y="720" type="line"/>
      <point x="60" y="272" type="line"/>
      <point x="90" y="272" type="line"/>
      <point x="90" y="720" type="line"/>
      <point x="135" y="720" type="line"/>
    </contour>
  </outline>
</glyph>
<glyph name="five" format="1">
  <advance width="150"/>
  <unicode hex="0035"/>
  <outline>
    <contour>
      <point x="142" y="679" type="line"/>
      <point x="60" y="679" type="line"/>
      <point x="60" y="418" type="line"/>
      <point x="85" y="418" type="line" smooth="yes"/>
      <point x="107" y="418"/>
      <point x="123" y="411"/>
      <point x="135" y="399" type="curve"/>
      <point x="135" y="16" type="line"/>
      <point x="117" y="0"/>
      <point x="96" y="-5"/>
      <point x="75" y="-5" type="curve" smooth="yes"/>
      <point x="54" y="-5"/>
      <point x="33" y="0"/>
      <point x="15" y="16" type="curve"/>
      <point x="15" y="272" type="line"/>
      <point x="60" y="272" type="line"/>
      <point x="60" y="37" type="line"/>
      <point x="65" y="34"/>
      <point x="69" y="33"/>
      <point x="75" y="33" type="curve" smooth="yes"/>
      <point x="81" y="33"/>
      <point x="85" y="34"/>
      <point x="90" y="37" type="curve"/>
      <point x="90" y="376" type="line"/>
      <point x="85" y="379"/>
      <point x="81" y="380"/>
      <point x="75" y="380" type="curve" smooth="yes"/>
      <point x="15" y="380" type="line"/>
      <point x="15" y="720" type="line"/>
      <point x="142" y="720" type="line"/>
    </contour>
  </outline>
</glyph>
<glyph name="six" format="1">
  <advance width="150"/>
  <unicode hex="0036"/>
  <outline>
    <contour>
      <point x="135" y="16" type="line"/>
      <point x="117" y="0"/>
      <point x="96" y="-5"/>
      <point x="75" y="-5" type="curve" smooth="yes"/>
      <point x="54" y="-5"/>
      <point x="33" y="0"/>
      <point x="15" y="16" type="curve"/>
      <point x="15" y="704" type="line"/>
      <point x="33" y="720"/>
      <point x="54" y="725"/>
      <point x="75" y="725" type="curve" smooth="yes"/>
      <point x="96" y="725"/>
      <point x="117" y="720"/>
      <point x="135" y="704" type="curve"/>
      <point x="135" y="448" type="line"/>
      <point x="90" y="448" type="line"/>
      <point x="90" y="683" type="line"/>
      <point x="85" y="686"/>
      <point x="81" y="687"/>
      <point x="75" y="687" type="curve" smooth="yes"/>
      <point x="69" y="687"/>
      <point x="65" y="686"/>
      <point x="60" y="683" type="curve"/>
      <point x="60" y="390" type="line"/>
      <point x="67" y="393"/>
      <point x="76" y="395"/>
      <point x="86" y="395" type="curve" smooth="yes"/>
      <point x="106" y="395"/>
      <point x="122" y="390"/>
      <point x="135" y="376" type="curve"/>
    </contour>
    <contour>
      <point x="90" y="37" type="curve"/>
      <point x="90" y="353" type="line"/>
      <point x="85" y="356"/>
      <point x="81" y="357"/>
      <point x="75" y="357" type="curve" smooth="yes"/>
      <point x="69" y="357"/>
      <point x="65" y="356"/>
      <point x="60" y="353" type="curve"/>
      <point x="60" y="37" type="line"/>
      <point x="65" y="34"/>
      <point x="69" y="33"/>
      <point x="75" y="33" type="curve" smooth="yes"/>
      <point x="81" y="33"/>
      <point x="85" y="34"/>
    </contour>
  </outline>
</glyph>
<glyph name="seven" format="1">
  <advance width="120"/>
  <unicode hex="0037"/>
  <outline>
    <contour>
      <point x="110" y="688" type="line"/>
      <point x="71" y="0" type="line"/>
      <point x="28" y="0" type="line"/>
      <point x="68" y="679" type="line"/>
      <point x="4" y="679" type="line"/>
      <point x="4" y="720" type="line"/>
      <point x="110" y="720" type="line"/>
    </contour>
  </outline>
</glyph>
<glyph name="eight" format="1">
  <advance width="150"/>
  <unicode hex="0038"/>
  <outline>
    <contour>
      <point x="135" y="16" type="line"/>
      <point x="117" y="0"/>
      <point x="96" y="-5"/>
      <point x="75" y="-5" type="curve" smooth="yes"/>
      <point x="54" y="-5"/>
      <point x="33" y="0"/>
      <point x="15" y="16" type="curve"/>
      <point x="15" y="343" type="line"/>
      <point x="24" y="353"/>
      <point x="36" y="361"/>
      <point x="49" y="365" type="curve"/>
      <point x="36" y="369"/>
      <point x="23" y="377"/>
      <point x="15" y="387" type="curve"/>
      <point x="15" y="704" type="line"/>
      <point x="33" y="720"/>
      <point x="54" y="725"/>
      <point x="75" y="725" type="curve" smooth="yes"/>
      <point x="96" y="725"/>
      <point x="117" y="720"/>
      <point x="135" y="704" type="curve"/>
      <point x="135" y="387" type="line"/>
      <point x="127" y="377"/>
      <point x="114" y="369"/>
      <point x="101" y="365" type="curve"/>
      <point x="114" y="361"/>
      <point x="126" y="353"/>
      <point x="135" y="343" type="curve"/>
    </contour>
    <contour>
      <point x="90" y="389" type="curve"/>
      <point x="90" y="683" type="line"/>
      <point x="85" y="686"/>
      <point x="81" y="687"/>
      <point x="75" y="687" type="curve" smooth="yes"/>
      <point x="69" y="687"/>
      <point x="65" y="686"/>
      <point x="60" y="683" type="curve"/>
      <point x="60" y="389" type="line"/>
      <point x="65" y="386"/>
      <point x="69" y="385"/>
      <point x="75" y="385" type="curve" smooth="yes"/>
      <point x="81" y="385"/>
      <point x="85" y="386"/>
    </contour>
    <contour>
      <point x="90" y="37" type="curve"/>
      <point x="90" y="343" type="line"/>
      <point x="85" y="346"/>
      <point x="81" y="347"/>
      <point x="75" y="347" type="curve" smooth="yes"/>
      <point x="69" y="347"/>
      <point x="65" y="346"/>
      <point x="60" y="343" type="curve"/>
      <point x="60" y="37" type="line"/>
      <point x="65" y="34"/>
      <point x="69" y="33"/>
      <point x="75" y="33" type="curve" smooth="yes"/>
      <point x="81" y="33"/>
      <point x="85" y="34"/>
    </contour>
  </outline>
</glyph>
<glyph name="nine" format="1">
  <advance width="150"/>
  <unicode hex="0039"/>
  <outline>
    <contour>
      <point x="135" y="16" type="line"/>
      <point x="117" y="0"/>
      <point x="96" y="-5"/>
      <point x="75" y="-5" type="curve" smooth="yes"/>
      <point x="54" y="-5"/>
      <point x="33" y="0"/>
      <point x="15" y="16" type="curve"/>
      <point x="15" y="272" type="line"/>
      <point x="60" y="272" type="line"/>
      <point x="60" y="37" type="line"/>
      <point x="65" y="34"/>
      <point x="69" y="33"/>
      <point x="75" y="33" type="curve" smooth="yes"/>
      <point x="81" y="33"/>
      <point x="85" y="34"/>
      <point x="90" y="37" type="curve"/>
      <point x="90" y="330" type="line"/>
      <point x="83" y="327"/>
      <point x="74" y="325"/>
      <point x="64" y="325" type="curve" smooth="yes"/>
      <point x="44" y="325"/>
      <point x="28" y="330"/>
      <point x="15" y="344" type="curve"/>
      <point x="15" y="704" type="line"/>
      <point x="33" y="720"/>
      <point x="54" y="725"/>
      <point x="75" y="725" type="curve" smooth="yes"/>
      <point x="96" y="725"/>
      <point x="117" y="720"/>
      <point x="135" y="704" type="curve"/>
    </contour>
    <contour>
      <point x="90" y="367" type="curve"/>
      <point x="90" y="683" type="line"/>
      <point x="85" y="686"/>
      <point x="81" y="687"/>
      <point x="75" y="687" type="curve" smooth="yes"/>
      <point x="69" y="687"/>
      <point x="65" y="686"/>
      <point x="60" y="683" type="curve"/>
      <point x="60" y="367" type="line"/>
      <point x="65" y="364"/>
      <point x="69" y="363"/>
      <point x="75" y="363" type="curve" smooth="yes"/>
      <point x="81" y="363"/>
      <point x="85" y="364"/>
    </contour>
  </outline>
</glyph>
<glyph name="colon" format="1">
  <advance width="75"/>
  <unicode hex="003A"/>
  <outline>
    <contour>
      <point x="61" y="370" type="line"/>
      <point x="15" y="370" type="line"/>
      <point x="15" y="480" type="line"/>
      <point x="61" y="480" type="line"/>
    </contour>
    <contour>
      <point x="61" y="0" type="line"/>
      <point x="15" y="0" type="line"/>
      <point x="15" y="110" type="line"/>
      <point x="61" y="110" type="line"/>
    </contour>
  </outline>
</glyph>
<glyph name="semicolon" format="1">
  <advance width="75"/>
  <unicode hex="003B"/>
  <outline>
    <contour>
      <point x="61" y="370" type="line"/>
      <point x="15" y="370" type="line"/>
      <point x="15" y="480" type="line"/>
      <point x="61" y="480" type="line"/>
    </contour>
    <contour>
      <point x="65" y="110" type="line"/>
      <point x="49" y="-65" type="line"/>
      <point x="3" y="-65" type="line"/>
      <point x="19" y="110" type="line"/>
    </contour>
  </outline>
</glyph>
<glyph name="less" format="1">
  <advance width="90"/>
  <unicode hex="003C"/>
  <outline>
    <contour>
      <point x="84" y="190" type="line"/>
      <point x="3" y="333" type="line"/>
      <point x="3" y="388" type="line"/>
      <point x="84" y="530" type="line"/>
      <point x="84" y="454" type="line"/>
      <point x="30" y="360" type="line"/>
      <point x="84" y="267" type="line"/>
    </contour>
  </outline>
</glyph>
<glyph name="equal" format="1">
  <advance width="90"/>
  <unicode hex="003D"/>
  <outline>
    <contour>
      <point x="85" y="393" type="line"/>
      <point x="5" y="393" type="line"/>
      <point x="5" y="435" type="line"/>
      <point x="85" y="435" type="line"/>
    </contour>
    <contour>
      <point x="85" y="306" type="line"/>
      <point x="5" y="306" type="line"/>
      <point x="5" y="349" type="line"/>
      <point x="85" y="349" type="line"/>
    </contour>
  </outline>
</glyph>
<glyph name="greater" format="1">
  <advance width="90"/>
  <unicode hex="003E"/>
  <outline>
    <contour>
      <point x="88" y="333" type="line"/>
      <point x="6" y="190" type="line"/>
      <point x="6" y="267" type="line"/>
      <point x="61" y="360" type="line"/>
      <point x="6" y="454" type="line"/>
      <point x="6" y="530" type="line"/>
      <point x="88" y="388" type="line"/>
    </contour>
  </outline>
</glyph>
<glyph name="question" format="1">
  <advance width="148"/>
  <unicode hex="003F"/>
  <outline>
    <contour>
      <point x="134" y="451" type="line"/>
      <point x="96" y="305" type="line"/>
      <point x="96" y="155" type="line"/>
      <point x="51" y="155" type="line"/>
      <point x="51" y="298" type="line"/>
      <point x="89" y="442" type="line"/>
      <point x="89" y="683" type="line"/>
      <point x="84" y="686"/>
      <point x="80" y="687"/>
      <point x="74" y="687" type="curve" smooth="yes"/>
      <point x="68" y="687"/>
      <point x="64" y="686"/>
      <point x="59" y="683" type="curve"/>
      <point x="59" y="448" type="line"/>
      <point x="14" y="448" type="line"/>
      <point x="14" y="704" type="line"/>
      <point x="32" y="720"/>
      <point x="53" y="725"/>
      <point x="74" y="725" type="curve" smooth="yes"/>
      <point x="95" y="725"/>
      <point x="116" y="720"/>
      <point x="134" y="704" type="curve"/>
    </contour>
    <contour>
      <point x="96" y="0" type="line"/>
      <point x="51" y="0" type="line"/>
      <point x="51" y="110" type="line"/>
      <point x="96" y="110" type="line"/>
    </contour>
  </outline>
</glyph>
<glyph name="at" format="1">
  <advance width="310"/>
  <unicode hex="0040"/>
  <outline>
    <contour>
      <point x="295" y="40" type="line"/>
      <point x="257" y="7"/>
      <point x="205" y="-5"/>
      <point x="155" y="-5" type="curve" smooth="yes"/>
      <point x="105" y="-5"/>
      <point x="53" y="7"/>
      <point x="15" y="40" type="curve"/>
      <point x="15" y="680" type="line"/>
      <point x="53" y="713"/>
      <point x="105" y="725"/>
      <point x="155" y="725" type="curve" smooth="yes"/>
      <point x="205" y="725"/>
      <point x="257" y="713"/>
      <point x="295" y="680" type="curve"/>
      <point x="295" y="339" type="line"/>
      <point x="216" y="339" type="line"/>
      <point x="216" y="86" type="line"/>
      <point x="200" y="77"/>
      <point x="177" y="71"/>
      <point x="155" y="71" type="curve" smooth="yes"/>
      <point x="133" y="71"/>
      <point x="110" y="77"/>
      <point x="95" y="86" type="curve"/>
      <point x="95" y="634" type="line"/>
      <point x="110" y="643"/>
      <point x="133" y="649"/>
      <point x="155" y="649" type="curve" smooth="yes"/>
      <point x="177" y="649"/>
      <point x="200" y="643"/>
      <point x="216" y="634" type="curve"/>
      <point x="216" y="380" type="line"/>
      <point x="251" y="380" type="line"/>
      <point x="251" y="657" type="line"/>
      <point x="218" y="676"/>
      <point x="188" y="683"/>
      <point x="155" y="683" type="curve" smooth="yes"/>
      <point x="122" y="683"/>
      <point x="92" y="676"/>
      <point x="60" y="657" type="curve"/>
      <point x="60" y="63" type="line"/>
      <point x="92" y="44"/>
      <point x="122" y="37"/>
      <point x="155" y="37" type="curve" smooth="yes"/>
      <point x="188" y="37"/>
      <point x="218" y="44"/>
      <point x="251" y="63" type="curve"/>
      <point x="251" y="272" type="line"/>
      <point x="295" y="272" type="line"/>
    </contour>
    <contour>
      <point x="173" y="111" type="curve"/>
      <point x="173" y="609" type="line"/>
      <point x="167" y="612"/>
      <point x="162" y="613"/>
      <point x="155" y="613" type="curve" smooth="yes"/>
      <point x="148" y="613"/>
      <point x="143" y="612"/>
      <point x="138" y="609" type="curve"/>
      <point x="138" y="111" type="line"/>
      <point x="143" y="108"/>
      <point x="148" y="107"/>
      <point x="155" y="107" type="curve" smooth="yes"/>
      <point x="162" y="107"/>
      <point x="167" y="108"/>
    </contour>
  </outline>
</glyph>
<glyph name="A" format="1">
  <advance width="150"/>
  <unicode hex="0041"/>
  <outline>
    <contour>
      <point x="135" y="0" type="line"/>
      <point x="90" y="0" type="line"/>
      <point x="90" y="349" type="line"/>
      <point x="60" y="349" type="line"/>
      <point x="60" y="0" type="line"/>
      <point x="15" y="0" type="line"/>
      <point x="15" y="704" type="line"/>
      <point x="33" y="720"/>
      <point x="54" y="725"/>
      <point x="75" y="725" type="curve" smooth="yes"/>
      <point x="96" y="725"/>
      <point x="117" y="720"/>
      <point x="135" y="704" type="curve"/>
    </contour>
    <contour>
      <point x="90" y="392" type="line"/>
      <point x="90" y="683" type="line"/>
      <point x="85" y="686"/>
      <point x="81" y="687"/>
      <point x="75" y="687" type="curve" smooth="yes"/>
      <point x="69" y="687"/>
      <point x="65" y="686"/>
      <point x="60" y="683" type="curve"/>
      <point x="60" y="392" type="line"/>
    </contour>
  </outline>
</glyph>
<glyph name="B" format="1">
  <advance width="149"/>
  <unicode hex="0042"/>
  <outline>
    <contour>
      <point x="135" y="33" type="line"/>
      <point x="118" y="8"/>
      <point x="90" y="0"/>
      <point x="63" y="0" type="curve" smooth="yes"/>
      <point x="15" y="0" type="line"/>
      <point x="15" y="720" type="line"/>
      <point x="62" y="720" type="line" smooth="yes"/>
      <point x="89" y="720"/>
      <point x="117" y="712"/>
      <point x="134" y="687" type="curve"/>
      <point x="134" y="394" type="line"/>
      <point x="126" y="384"/>
      <point x="114" y="376"/>
      <point x="101" y="372" type="curve"/>
      <point x="114" y="368"/>
      <point x="126" y="360"/>
      <point x="135" y="350" type="curve"/>
    </contour>
    <contour>
      <point x="89" y="404" type="curve"/>
      <point x="89" y="671" type="line"/>
      <point x="84" y="678"/>
      <point x="74" y="682"/>
      <point x="62" y="682" type="curve" smooth="yes"/>
      <point x="60" y="682" type="line"/>
      <point x="60" y="391" type="line"/>
      <point x="62" y="391" type="line" smooth="yes"/>
      <point x="74" y="391"/>
      <point x="84" y="397"/>
    </contour>
    <contour>
      <point x="90" y="49" type="curve"/>
      <point x="90" y="340" type="line"/>
      <point x="85" y="347"/>
      <point x="74" y="353"/>
      <point x="62" y="353" type="curve" smooth="yes"/>
      <point x="60" y="353" type="line"/>
      <point x="60" y="38" type="line"/>
      <point x="62" y="38" type="line" smooth="yes"/>
      <point x="74" y="38"/>
      <point x="85" y="42"/>
    </contour>
  </outline>
</glyph>
<glyph name="H" format="1">
  <advance width="150"/>
  <unicode hex="0048"/>
  <outline>
    <contour>
      <point x="135" y="0" type="line"/>
      <point x="90" y="0" type="line"/>
      <point x="90" y="349" type="line"/>
      <point x="60" y="349" type="line"/>
      <point x="60" y="0" type="line"/>
      <point x="15" y="0" type="line"/>
      <point x="15" y="720" type="line"/>
      <point x="60" y="720" type="line"/>
      <point x="60" y="392" type="line"/>
      <point x="90" y="392" type="line"/>
      <point x="90" y="720" type="line"/>
      <point x="135" y="720" type="line"/>
    </contour>
  </outline>
</glyph>
<glyph name="I" format="1">
  <advance width="75"/>
  <unicode hex="0049"/>
  <outline>
    <contour>
      <point x="60" y="0" type="line"/>
      <point x="15" y="0" type="line"/>
      <point x="15" y="720" type="line"/>
      <point x="60" y="720" type="line"/>
    </contour>
  </outline>
</glyph>
<glyph name="J" format="1">
  <advance width="110"/>
  <unicode hex="004A"/>
  <outline>
    <contour>
      <point x="95" y="21" type="line"/>
      <point x="77" y="5"/>
      <point x="59" y="0"/>
      <point x="35" y="0" type="curve" smooth="yes"/>
      <point x="5" y="0" type="line"/>
      <point x="5" y="38" type="line"/>
      <point x="35" y="38" type="line" smooth="yes"/>
      <point x="41" y="38"/>
      <point x="45" y="39"/>
      <point x="50" y="42" type="curve"/>
      <point x="50" y="720" type="line"/>
      <point x="95" y="720" type="line"/>
    </contour>
  </outline>
</glyph>
<glyph name="K" format="1">
  <advance width="149"/>
  <unicode hex="004B"/>
  <outline>
    <contour>
      <point x="135" y="0" type="line"/>
      <point x="90" y="0" type="line"/>
      <point x="90" y="340" type="line"/>
      <point x="85" y="347"/>
      <point x="74" y="353"/>
      <point x="62" y="353" type="curve" smooth="yes"/>
      <point x="60" y="353" type="line"/>
      <point x="60" y="0" type="line"/>
      <point x="15" y="0" type="line"/>
      <point x="15" y="720" type="line"/>
      <point x="60" y="720" type="line"/>
      <point x="60" y="391" type="line"/>
      <point x="62" y="391" type="line" smooth="yes"/>
      <point x="74" y="391"/>
      <point x="84" y="397"/>
      <point x="89" y="404" type="curve"/>
      <point x="89" y="720" type="line"/>
      <point x="134" y="720" type="line"/>
      <point x="134" y="394" type="line"/>
      <point x="126" y="384"/>
      <point x="114" y="376"/>
      <point x="101" y="372" type="curve"/>
      <point x="114" y="368"/>
      <point x="126" y="360"/>
      <point x="135" y="350" type="curve"/>
    </contour>
  </outline>
</glyph>
<glyph name="M" format="1">
  <advance width="225"/>
  <unicode hex="004D"/>
  <outline>
    <contour>
      <point x="210" y="0" type="line"/>
      <point x="165" y="0" type="line"/>
      <point x="165" y="681" type="line"/>
      <point x="157" y="685"/>
      <point x="146" y="687"/>
      <point x="135" y="688" type="curve"/>
      <point x="135" y="0" type="line"/>
      <point x="90" y="0" type="line"/>
      <point x="90" y="688" type="line"/>
      <point x="79" y="687"/>
      <point x="68" y="685"/>
      <point x="60" y="681" type="curve"/>
      <point x="60" y="0" type="line"/>
      <point x="15" y="0" type="line"/>
      <point x="15" y="704" type="line"/>
      <point x="42" y="719"/>
      <point x="76" y="725"/>
      <point x="113" y="725" type="curve" smooth="yes"/>
      <point x="150" y="725"/>
      <point x="184" y="719"/>
      <point x="210" y="704" type="curve"/>
    </contour>
  </outline>
</glyph>
<glyph name="N" format="1">
  <advance width="150"/>
  <unicode hex="004E"/>
  <outline>
    <contour>
      <point x="135" y="0" type="line"/>
      <point x="90" y="0" type="line"/>
      <point x="90" y="683" type="line"/>
      <point x="85" y="686"/>
      <point x="81" y="687"/>
      <point x="75" y="687" type="curve" smooth="yes"/>
      <point x="69" y="687"/>
      <point x="65" y="686"/>
      <point x="60" y="683" type="curve"/>
      <point x="60" y="0" type="line"/>
      <point x="15" y="0" type="line"/>
      <point x="15" y="704" type="line"/>
      <point x="33" y="720"/>
      <point x="54" y="725"/>
      <point x="75" y="725" type="curve" smooth="yes"/>
      <point x="96" y="725"/>
      <point x="117" y="720"/>
      <point x="135" y="704" type="curve"/>
    </contour>
  </outline>
</glyph>
<glyph name="P" format="1">
  <advance width="149"/>
  <unicode hex="0050"/>
  <outline>
    <contour>
      <point x="135" y="362" type="line"/>
      <point x="118" y="337"/>
      <point x="90" y="327"/>
      <point x="63" y="327" type="curve" smooth="yes"/>
      <point x="60" y="327" type="line"/>
      <point x="60" y="0" type="line"/>
      <point x="15" y="0" type="line"/>
      <point x="15" y="720" type="line"/>
      <point x="63" y="720" type="line" smooth="yes"/>
      <point x="90" y="720"/>
      <point x="118" y="710"/>
      <point x="135" y="685" type="curve"/>
    </contour>
    <contour>
      <point x="90" y="378" type="curve"/>
      <point x="90" y="669" type="line"/>
      <point x="85" y="676"/>
      <point x="74" y="682"/>
      <point x="62" y="682" type="curve" smooth="yes"/>
      <point x="60" y="682" type="line"/>
      <point x="60" y="365" type="line"/>
      <point x="62" y="365" type="line" smooth="yes"/>
      <point x="74" y="365"/>
      <point x="85" y="371"/>
    </contour>
  </outline>
</glyph>
<glyph name="Q" format="1">
  <advance width="150"/>
  <unicode hex="0051"/>
  <outline>
    <contour>
      <point x="135" y="16" type="line"/>
      <point x="123" y="5"/>
      <point x="109" y="-1"/>
      <point x="95" y="-3" type="curve"/>
      <point x="95" y="-75" type="line"/>
      <point x="55" y="-75" type="line"/>
      <point x="55" y="-3" type="line"/>
      <point x="41" y="-1"/>
      <point x="27" y="5"/>
      <point x="15" y="16" type="curve"/>
      <point x="15" y="704" type="line"/>
      <point x="33" y="720"/>
      <point x="54" y="725"/>
      <point x="75" y="725" type="curve" smooth="yes"/>
      <point x="96" y="725"/>
      <point x="117" y="720"/>
      <point x="135" y="704" type="curve"/>
    </contour>
    <contour>
      <point x="90" y="37" type="curve"/>
      <point x="90" y="683" type="line"/>
      <point x="85" y="686"/>
      <point x="81" y="687"/>
      <point x="75" y="687" type="curve" smooth="yes"/>
      <point x="69" y="687"/>
      <point x="65" y="686"/>
      <point x="60" y="683" type="curve"/>
      <point x="60" y="37" type="line"/>
      <point x="65" y="34"/>
      <point x="69" y="33"/>
      <point x="75" y="33" type="curve" smooth="yes"/>
      <point x="81" y="33"/>
      <point x="85" y="34"/>
    </contour>
  </outline>
</glyph>
<glyph name="T" format="1">
  <advance width="115"/>
  <unicode hex="0054"/>
  <outline>
    <contour>
      <point x="113" y="682" type="line"/>
      <point x="80" y="682" type="line"/>
      <point x="80" y="0" type="line"/>
      <point x="35" y="0" type="line"/>
      <point x="35" y="682" type="line"/>
      <point x="3" y="682" type="line"/>
      <point x="3" y="720" type="line"/>
      <point x="113" y="720" type="line"/>
    </contour>
  </outline>
</glyph>
<glyph name="V" format="1">
  <advance width="150"/>
  <unicode hex="0056"/>
  <outline>
    <contour>
      <point x="135" y="353" type="line" smooth="yes"/>
      <point x="135" y="169"/>
      <point x="115" y="75"/>
      <point x="95" y="0" type="curve"/>
      <point x="55" y="0" type="line"/>
      <point x="35" y="75"/>
      <point x="15" y="169"/>
      <point x="15" y="353" type="curve" smooth="yes"/>
      <point x="15" y="720" type="line"/>
      <point x="60" y="720" type="line"/>
      <point x="60" y="353" type="line" smooth="yes"/>
      <point x="60" y="215"/>
      <point x="67" y="132"/>
      <point x="75" y="81" type="curve"/>
      <point x="83" y="132"/>
      <point x="90" y="215"/>
      <point x="90" y="353" type="curve" smooth="yes"/>
      <point x="90" y="720" type="line"/>
      <point x="135" y="720" type="line"/>
    </contour>
  </outline>
</glyph>
<glyph name="W" format="1">
  <advance width="225"/>
  <unicode hex="0057"/>
  <outline>
    <contour>
      <point x="210" y="16" type="line"/>
      <point x="184" y="1"/>
      <point x="150" y="-5"/>
      <point x="113" y="-5" type="curve" smooth="yes"/>
      <point x="76" y="-5"/>
      <point x="42" y="1"/>
      <point x="15" y="16" type="curve"/>
      <point x="15" y="720" type="line"/>
      <point x="60" y="720" type="line"/>
      <point x="60" y="39" type="line"/>
      <point x="68" y="35"/>
      <point x="79" y="33"/>
      <point x="90" y="32" type="curve"/>
      <point x="90" y="720" type="line"/>
      <point x="135" y="720" type="line"/>
      <point x="135" y="32" type="line"/>
      <point x="146" y="33"/>
      <point x="157" y="35"/>
      <point x="165" y="39" type="curve"/>
      <point x="165" y="720" type="line"/>
      <point x="210" y="720" type="line"/>
    </contour>
  </outline>
</glyph>
<glyph name="X" format="1">
  <advance width="149"/>
  <unicode hex="0058"/>
  <outline>
    <contour>
      <point x="135" y="0" type="line"/>
      <point x="90" y="0" type="line"/>
      <point x="90" y="347" type="line"/>
      <point x="85" y="350"/>
      <point x="81" y="351"/>
      <point x="75" y="351" type="curve" smooth="yes"/>
      <point x="69" y="351"/>
      <point x="65" y="350"/>
      <point x="60" y="347" type="curve"/>
      <point x="60" y="0" type="line"/>
      <point x="15" y="0" type="line"/>
      <point x="15" y="350" type="line"/>
      <point x="24" y="360"/>
      <point x="36" y="368"/>
      <point x="49" y="372" type="curve"/>
      <point x="36" y="376"/>
      <point x="24" y="384"/>
      <point x="16" y="394" type="curve"/>
      <point x="16" y="720" type="line"/>
      <point x="61" y="720" type="line"/>
      <point x="61" y="398" type="line"/>
      <point x="66" y="395"/>
      <point x="69" y="394"/>
      <point x="75" y="394" type="curve" smooth="yes"/>
      <point x="81" y="394"/>
      <point x="84" y="395"/>
      <point x="89" y="398" type="curve"/>
      <point x="89" y="720" type="line"/>
      <point x="134" y="720" type="line"/>
      <point x="134" y="394" type="line"/>
      <point x="126" y="384"/>
      <point x="114" y="376"/>
      <point x="101" y="372" type="curve"/>
      <point x="114" y="368"/>
      <point x="126" y="360"/>
      <point x="135" y="350" type="curve"/>
    </contour>
  </outline>
</glyph>
<glyph name="Y" format="1">
  <advance width="150"/>
  <unicode hex="0059"/>
  <outline>
    <contour>
      <point x="135" y="315" type="line"/>
      <point x="124" y="305"/>
      <point x="111" y="299"/>
      <point x="98" y="296" type="curve"/>
      <point x="98" y="0" type="line"/>
      <point x="53" y="0" type="line"/>
      <point x="53" y="296" type="line"/>
      <point x="40" y="299"/>
      <point x="27" y="305"/>
      <point x="15" y="315" type="curve"/>
      <point x="15" y="720" type="line"/>
      <point x="60" y="720" type="line"/>
      <point x="60" y="336" type="line"/>
      <point x="65" y="333"/>
      <point x="69" y="332"/>
      <point x="75" y="332" type="curve" smooth="yes"/>
      <point x="81" y="332"/>
      <point x="85" y="333"/>
      <point x="90" y="336" type="curve"/>
      <point x="90" y="720" type="line"/>
      <point x="135" y="720" type="line"/>
    </contour>
  </outline>
</glyph>
<glyph name="Z" format="1">
  <advance width="108"/>
  <unicode hex="005A"/>
  <outline>
    <contour>
      <point x="103" y="0" type="line"/>
      <point x="5" y="0" type="line"/>
      <point x="5" y="33" type="line"/>
      <point x="59" y="682" type="line"/>
      <point x="6" y="682" type="line"/>
      <point x="6" y="720" type="line"/>
      <point x="102" y="720" type="line"/>
      <point x="102" y="688" type="line"/>
      <point x="49" y="38" type="line"/>
      <point x="103" y="38" type="line"/>
    </contour>
  </outline>
</glyph>
<glyph name="bracketleft" format="1">
  <advance width="105"/>
  <unicode hex="005B"/>
  <outline>
    <contour>
      <point x="95" y="0" type="line"/>
      <point x="15" y="0" type="line"/>
      <point x="15" y="720" type="line"/>
      <point x="95" y="720" type="line"/>
      <point x="95" y="678" type="line"/>
      <point x="60" y="678" type="line"/>
      <point x="60" y="43" type="line"/>
      <point x="95" y="43" type="line"/>
    </contour>
  </outline>
</glyph>
<glyph name="backslash" format="1">
  <advance width="100"/>
  <unicode hex="005C"/>
  <outline>
    <contour>
      <point x="93" y="0" type="line"/>
      <point x="52" y="0" type="line"/>
      <point x="8" y="720" type="line"/>
      <point x="49" y="720" type="line"/>
    </contour>
  </outline>
</glyph>
<glyph name="bracketright" format="1">
  <advance width="105"/>
  <unicode hex="005D"/>
  <outline>
    <contour>
      <point x="90" y="0" type="line"/>
      <point x="10" y="0" type="line"/>
      <point x="10" y="43" type="line"/>
      <point x="45" y="43" type="line"/>
      <point x="45" y="678" type="line"/>
      <point x="10" y="678" type="line"/>
      <point x="10" y="720" type="line"/>
      <point x="90" y="720" type="line"/>
    </contour>
  </outline>
</glyph>
<glyph name="asciicircum" format="1">
  <advance width="140"/>
  <unicode hex="005E"/>
  <outline>
    <contour>
      <point x="135" y="350" type="line"/>
      <point x="92" y="350" type="line"/>
      <point x="70" y="639" type="line"/>
      <point x="47" y="350" type="line"/>
      <point x="5" y="350" type="line"/>
      <point x="48" y="723" type="line"/>
      <point x="93" y="723" type="line"/>
    </contour>
  </outline>
</glyph>
<glyph name="underscore" format="1">
  <advance width="150"/>
  <unicode hex="005F"/>
  <outline>
    <contour>
      <point x="150" y="-87" type="line"/>
      <point x="0" y="-87" type="line"/>
      <point x="0" y="-45" type="line"/>
      <point x="150" y="-45" type="line"/>
    </contour>
  </outline>
</glyph>
<glyph name="grave" format="1">
  <advance width="150"/>
  <unicode hex="0060"/>
  <outline>
    <contour>
      <point x="119" y="515" type="line"/>
      <point x="76" y="515" type="line"/>
      <point x="31" y="625" type="line"/>
      <point x="78" y="625" type="line"/>
    </contour>
  </outline>
</glyph>
<glyph name="a" format="1">
  <advance width="150"/>
  <unicode hex="0061"/>
  <outline>
    <contour>
      <point x="135" y="16" type="line"/>
      <point x="117" y="0"/>
      <point x="96" y="-5"/>
      <point x="75" y="-5" type="curve" smooth="yes"/>
      <point x="54" y="-5"/>
      <point x="33" y="0"/>
      <point x="15" y="16" type="curve"/>
      <point x="15" y="291" type="line"/>
      <point x="28" y="305"/>
      <point x="44" y="310"/>
      <point x="64" y="310" type="curve" smooth="yes"/>
      <point x="74" y="310"/>
      <point x="83" y="308"/>
      <point x="90" y="305" type="curve"/>
      <point x="90" y="443" type="line"/>
      <point x="85" y="446"/>
      <point x="81" y="447"/>
      <point x="75" y="447" type="curve" smooth="yes"/>
      <point x="69" y="447"/>
      <point x="65" y="446"/>
      <point x="60" y="443" type="curve"/>
      <point x="60" y="355" type="line"/>
      <point x="15" y="355" type="line"/>
      <point x="15" y="464" type="line"/>
      <point x="33" y="480"/>
      <point x="54" y="485"/>
      <point x="75" y="485" type="curve" smooth="yes"/>
      <point x="96" y="485"/>
      <point x="117" y="480"/>
      <point x="135" y="464" type="curve"/>
    </contour>
    <contour>
      <point x="90" y="37" type="curve"/>
      <point x="90" y="268" type="line"/>
      <point x="85" y="271"/>
      <point x="81" y="272"/>
      <point x="75" y="272" type="curve" smooth="yes"/>
      <point x="69" y="272"/>
      <point x="65" y="271"/>
      <point x="60" y="268" type="curve"/>
      <point x="60" y="37" type="line"/>
      <point x="65" y="34"/>
      <point x="69" y="33"/>
      <point x="75" y="33" type="curve" smooth="yes"/>
      <point x="81" y="33"/>
      <point x="85" y="34"/>
    </contour>
  </outline>
</glyph>
<glyph name="f" format="1">
  <advance width="110"/>
  <unicode hex="0066"/>
  <outline>
    <contour>
      <point x="110" y="678" type="line"/>
      <point x="95" y="678" type="line" smooth="yes"/>
      <point x="84" y="678"/>
      <point x="69" y="675"/>
      <point x="60" y="666" type="curve"/>
      <point x="60" y="480" type="line"/>
      <point x="105" y="480" type="line"/>
      <point x="105" y="438" type="line"/>
      <point x="60" y="438" type="line"/>
      <point x="60" y="0" type="line"/>
      <point x="15" y="0" type="line"/>
      <point x="15" y="438" type="line"/>
      <point x="15" y="438" type="line"/>
      <point x="15" y="480" type="line"/>
      <point x="15" y="480" type="line"/>
      <point x="15" y="685" type="line"/>
      <point x="29" y="706"/>
      <point x="55" y="720"/>
      <point x="88" y="720" type="curve" smooth="yes"/>
      <point x="110" y="720" type="line"/>
    </contour>
  </outline>
</glyph>
<glyph name="i" format="1">
  <advance width="75"/>
  <unicode hex="0069"/>
  <outline>
    <contour>
      <point x="60" y="610" type="line"/>
      <point x="15" y="610" type="line"/>
      <point x="15" y="720" type="line"/>
      <point x="60" y="720" type="line"/>
    </contour>
    <contour>
      <point x="60" y="0" type="line"/>
      <point x="15" y="0" type="line"/>
      <point x="15" y="480" type="line"/>
      <point x="60" y="480" type="line"/>
    </contour>
  </outline>
</glyph>
<glyph name="j" format="1">
  <advance width="75"/>
  <unicode hex="006A"/>
  <outline>
    <contour>
      <point x="60" y="610" type="line"/>
      <point x="15" y="610" type="line"/>
      <point x="15" y="720" type="line"/>
      <point x="60" y="720" type="line"/>
    </contour>
    <contour>
      <point x="60" y="-140" type="line"/>
      <point x="46" y="-161"/>
      <point x="20" y="-175"/>
      <point x="-13" y="-175" type="curve" smooth="yes"/>
      <point x="-35" y="-175" type="line"/>
      <point x="-35" y="-133" type="line"/>
      <point x="-20" y="-133" type="line" smooth="yes"/>
      <point x="-9" y="-133"/>
      <point x="6" y="-130"/>
      <point x="15" y="-121" type="curve"/>
      <point x="15" y="480" type="line"/>
      <point x="60" y="480" type="line"/>
    </contour>
  </outline>
</glyph>
<glyph name="k" format="1">
  <advance width="150"/>
  <unicode hex="006B"/>
  <outline>
    <contour>
      <point x="135" y="0" type="line"/>
      <point x="90" y="0" type="line"/>
      <point x="90" y="213" type="line"/>
      <point x="85" y="220"/>
      <point x="74" y="226"/>
      <point x="62" y="226" type="curve" smooth="yes"/>
      <point x="60" y="226" type="line"/>
      <point x="60" y="0" type="line"/>
      <point x="15" y="0" type="line"/>
      <point x="15" y="720" type="line"/>
      <point x="60" y="720" type="line"/>
      <point x="60" y="264" type="line"/>
      <point x="62" y="264" type="line" smooth="yes"/>
      <point x="74" y="264"/>
      <point x="84" y="270"/>
      <point x="89" y="277" type="curve"/>
      <point x="89" y="480" type="line"/>
      <point x="134" y="480" type="line"/>
      <point x="134" y="267" type="line"/>
      <point x="126" y="257"/>
      <point x="114" y="249"/>
      <point x="101" y="245" type="curve"/>
      <point x="114" y="241"/>
      <point x="126" y="233"/>
      <point x="135" y="223" type="curve"/>
    </contour>
  </outline>
</glyph>
<glyph name="l" format="1">
  <advance width="75"/>
  <unicode hex="006C"/>
  <outline>
    <contour>
      <point x="60" y="0" type="line"/>
      <point x="15" y="0" type="line"/>
      <point x="15" y="720" type="line"/>
      <point x="60" y="720" type="line"/>
    </contour>
  </outline>
</glyph>
<glyph name="m" format="1">
  <advance width="225"/>
  <unicode hex="006D"/>
  <outline>
    <contour>
      <point x="210" y="0" type="line"/>
      <point x="165" y="0" type="line"/>
      <point x="165" y="436" type="line"/>
      <point x="160" y="439"/>
      <point x="149" y="443"/>
      <point x="135" y="445" type="curve"/>
      <point x="135" y="0" type="line"/>
      <point x="90" y="0" type="line"/>
      <point x="90" y="445" type="line"/>
      <point x="76" y="443"/>
      <point x="65" y="439"/>
      <point x="60" y="436" type="curve"/>
      <point x="60" y="0" type="line"/>
      <point x="15" y="0" type="line"/>
      <point x="15" y="459" type="line"/>
      <point x="42" y="477"/>
      <point x="73" y="485"/>
      <point x="113" y="485" type="curve" smooth="yes"/>
      <point x="153" y="485"/>
      <point x="184" y="477"/>
      <point x="210" y="459" type="curve"/>
    </contour>
  </outline>
</glyph>
<glyph name="o" format="1">
  <advance width="150"/>
  <unicode hex="006F"/>
  <outline>
    <contour>
      <point x="135" y="16" type="line"/>
      <point x="117" y="0"/>
      <point x="96" y="-5"/>
      <point x="75" y="-5" type="curve" smooth="yes"/>
      <point x="54" y="-5"/>
      <point x="33" y="0"/>
      <point x="15" y="16" type="curve"/>
      <point x="15" y="464" type="line"/>
      <point x="33" y="480"/>
      <point x="54" y="485"/>
      <point x="75" y="485" type="curve" smooth="yes"/>
      <point x="96" y="485"/>
      <point x="117" y="480"/>
      <point x="135" y="464" type="curve"/>
    </contour>
    <contour>
      <point x="90" y="37" type="curve"/>
      <point x="90" y="443" type="line"/>
      <point x="85" y="446"/>
      <point x="81" y="447"/>
      <point x="75" y="447" type="curve" smooth="yes"/>
      <point x="69" y="447"/>
      <point x="65" y="446"/>
      <point x="60" y="443" type="curve"/>
      <point x="60" y="37" type="line"/>
      <point x="65" y="34"/>
      <point x="69" y="33"/>
      <point x="75" y="33" type="curve" smooth="yes"/>
      <point x="81" y="33"/>
      <point x="85" y="34"/>
    </contour>
  </outline>
</glyph>
<glyph name="p" format="1">
  <advance width="150"/>
  <unicode hex="0070"/>
  <outline>
    <contour>
      <point x="135" y="14" type="line"/>
      <point x="122" y="0"/>
      <point x="106" y="-5"/>
      <point x="86" y="-5" type="curve" smooth="yes"/>
      <point x="76" y="-5"/>
      <point x="67" y="-3"/>
      <point x="60" y="0" type="curve"/>
      <point x="60" y="-175" type="line"/>
      <point x="15" y="-175" type="line"/>
      <point x="15" y="464" type="line"/>
      <point x="33" y="480"/>
      <point x="54" y="485"/>
      <point x="75" y="485" type="curve" smooth="yes"/>
      <point x="96" y="485"/>
      <point x="117" y="480"/>
      <point x="135" y="464" type="curve"/>
    </contour>
    <contour>
      <point x="90" y="37" type="curve"/>
      <point x="90" y="443" type="line"/>
      <point x="85" y="446"/>
      <point x="81" y="447"/>
      <point x="75" y="447" type="curve" smooth="yes"/>
      <point x="69" y="447"/>
      <point x="65" y="446"/>
      <point x="60" y="443" type="curve"/>
      <point x="60" y="37" type="line"/>
      <point x="65" y="34"/>
      <point x="69" y="33"/>
      <point x="75" y="33" type="curve" smooth="yes"/>
      <point x="81" y="33"/>
      <point x="85" y="34"/>
    </contour>
  </outline>
</glyph>
<glyph name="q" format="1">
  <advance width="150"/>
  <unicode hex="0071"/>
  <outline>
    <contour>
      <point x="135" y="-175" type="line"/>
      <point x="90" y="-175" type="line"/>
      <point x="90" y="0" type="line"/>
      <point x="83" y="-3"/>
      <point x="74" y="-5"/>
      <point x="64" y="-5" type="curve" smooth="yes"/>
      <point x="44" y="-5"/>
      <point x="28" y="0"/>
      <point x="15" y="14" type="curve"/>
      <point x="15" y="464" type="line"/>
      <point x="33" y="480"/>
      <point x="54" y="485"/>
      <point x="75" y="485" type="curve" smooth="yes"/>
      <point x="96" y="485"/>
      <point x="117" y="480"/>
      <point x="135" y="464" type="curve"/>
    </contour>
    <contour>
      <point x="90" y="37" type="curve"/>
      <point x="90" y="443" type="line"/>
      <point x="85" y="446"/>
      <point x="81" y="447"/>
      <point x="75" y="447" type="curve" smooth="yes"/>
      <point x="69" y="447"/>
      <point x="65" y="446"/>
      <point x="60" y="443" type="curve"/>
      <point x="60" y="37" type="line"/>
      <point x="65" y="34"/>
      <point x="69" y="33"/>
      <point x="75" y="33" type="curve" smooth="yes"/>
      <point x="81" y="33"/>
      <point x="85" y="34"/>
    </contour>
  </outline>
</glyph>
<glyph name="r" format="1">
  <advance width="115"/>
  <unicode hex="0072"/>
  <outline>
    <contour>
      <point x="110" y="438" type="line"/>
      <point x="95" y="438" type="line" smooth="yes"/>
      <point x="84" y="438"/>
      <point x="69" y="435"/>
      <point x="60" y="426" type="curve"/>
      <point x="60" y="0" type="line"/>
      <point x="15" y="0" type="line"/>
      <point x="15" y="445" type="line"/>
      <point x="29" y="466"/>
      <point x="55" y="480"/>
      <point x="88" y="480" type="curve" smooth="yes"/>
      <point x="110" y="480" type="line"/>
    </contour>
  </outline>
</glyph>
<glyph name="t" format="1">
  <advance width="115"/>
  <unicode hex="0074"/>
  <outline>
    <contour>
      <point x="110" y="0" type="line"/>
      <point x="88" y="0" type="line" smooth="yes"/>
      <point x="55" y="0"/>
      <point x="29" y="14"/>
      <point x="15" y="35" type="curve"/>
      <point x="15" y="438" type="line"/>
      <point x="15" y="438" type="line"/>
      <point x="15" y="480" type="line"/>
      <point x="15" y="480" type="line"/>
      <point x="15" y="640" type="line"/>
      <point x="60" y="640" type="line"/>
      <point x="60" y="480" type="line"/>
      <point x="105" y="480" type="line"/>
      <point x="105" y="438" type="line"/>
      <point x="60" y="438" type="line"/>
      <point x="60" y="54" type="line"/>
      <point x="69" y="45"/>
      <point x="84" y="42"/>
      <point x="95" y="42" type="curve" smooth="yes"/>
      <point x="110" y="42" type="line"/>
    </contour>
  </outline>
</glyph>
<glyph name="u" format="1">
  <advance width="150"/>
  <unicode hex="0075"/>
  <outline>
    <contour>
      <point x="135" y="16" type="line"/>
      <point x="117" y="0"/>
      <point x="96" y="-5"/>
      <point x="75" y="-5" type="curve" smooth="yes"/>
      <point x="54" y="-5"/>
      <point x="33" y="0"/>
      <point x="15" y="16" type="curve"/>
      <point x="15" y="480" type="line"/>
      <point x="60" y="480" type="line"/>
      <point x="60" y="37" type="line"/>
      <point x="65" y="34"/>
      <point x="69" y="33"/>
      <point x="75" y="33" type="curve" smooth="yes"/>
      <point x="81" y="33"/>
      <point x="85" y="34"/>
      <point x="90" y="37" type="curve"/>
      <point x="90" y="480" type="line"/>
      <point x="135" y="480" type="line"/>
    </contour>
  </outline>
</glyph>
<glyph name="v" format="1">
  <advance width="150"/>
  <unicode hex="0076"/>
  <outline>
    <contour>
      <point x="135" y="298" type="line" smooth="yes"/>
      <point x="135" y="166"/>
      <point x="117" y="76"/>
      <point x="95" y="0" type="curve"/>
      <point x="55" y="0" type="line"/>
      <point x="33" y="76"/>
      <point x="15" y="166"/>
      <point x="15" y="298" type="curve" smooth="yes"/>
      <point x="15" y="480" type="line"/>
      <point x="60" y="480" type="line"/>
      <point x="60" y="298" type="line" smooth="yes"/>
      <point x="60" y="201"/>
      <point x="65" y="127"/>
      <point x="75" y="76" type="curve"/>
      <point x="85" y="127"/>
      <point x="90" y="201"/>
      <point x="90" y="298" type="curve" smooth="yes"/>
      <point x="90" y="480" type="line"/>
      <point x="135" y="480" type="line"/>
    </contour>
  </outline>
</glyph>
<glyph name="w" format="1">
  <advance width="225"/>
  <unicode hex="0077"/>
  <outline>
    <contour>
      <point x="210" y="21" type="line"/>
      <point x="184" y="3"/>
      <point x="153" y="-5"/>
      <point x="113" y="-5" type="curve" smooth="yes"/>
      <point x="73" y="-5"/>
      <point x="42" y="3"/>
      <point x="15" y="21" type="curve"/>
      <point x="15" y="480" type="line"/>
      <point x="60" y="480" type="line"/>
      <point x="60" y="44" type="line"/>
      <point x="65" y="41"/>
      <point x="76" y="37"/>
      <point x="90" y="35" type="curve"/>
      <point x="90" y="480" type="line"/>
      <point x="135" y="480" type="line"/>
      <point x="135" y="35" type="line"/>
      <point x="149" y="37"/>
      <point x="160" y="41"/>
      <point x="165" y="44" type="curve"/>
      <point x="165" y="480" type="line"/>
      <point x="210" y="480" type="line"/>
    </contour>
  </outline>
</glyph>
<glyph name="x" format="1">
  <advance width="150"/>
  <unicode hex="0078"/>
  <outline>
    <contour>
      <point x="135" y="0" type="line"/>
      <point x="90" y="0" type="line"/>
      <point x="90" y="220" type="line"/>
      <point x="85" y="223"/>
      <point x="81" y="224"/>
      <point x="75" y="224" type="curve" smooth="yes"/>
      <point x="69" y="224"/>
      <point x="65" y="223"/>
      <point x="60" y="220" type="curve"/>
      <point x="60" y="0" type="line"/>
      <point x="15" y="0" type="line"/>
      <point x="15" y="223" type="line"/>
      <point x="24" y="233"/>
      <point x="36" y="241"/>
      <point x="49" y="245" type="curve"/>
      <point x="36" y="249"/>
      <point x="24" y="257"/>
      <point x="16" y="267" type="curve"/>
      <point x="16" y="480" type="line"/>
      <point x="61" y="480" type="line"/>
      <point x="61" y="271" type="line"/>
      <point x="66" y="268"/>
      <point x="69" y="267"/>
      <point x="75" y="267" type="curve" smooth="yes"/>
      <point x="81" y="267"/>
      <point x="84" y="268"/>
      <point x="89" y="271" type="curve"/>
      <point x="89" y="480" type="line"/>
      <point x="134" y="480" type="line"/>
      <point x="134" y="267" type="line"/>
      <point x="126" y="257"/>
      <point x="114" y="249"/>
      <point x="101" y="245" type="curve"/>
      <point x="114" y="241"/>
      <point x="126" y="233"/>
      <point x="135" y="223" type="curve"/>
    </contour>
  </outline>
</glyph>
<glyph name="y" format="1">
  <advance width="150"/>
  <unicode hex="0079"/>
  <outline>
    <contour>
      <point x="135" y="-159" type="line"/>
      <point x="117" y="-175"/>
      <point x="96" y="-180"/>
      <point x="75" y="-180" type="curve" smooth="yes"/>
      <point x="54" y="-180"/>
      <point x="33" y="-175"/>
      <point x="15" y="-159" type="curve"/>
      <point x="15" y="-50" type="line"/>
      <point x="60" y="-50" type="line"/>
      <point x="60" y="-138" type="line"/>
      <point x="65" y="-141"/>
      <point x="69" y="-142"/>
      <point x="75" y="-142" type="curve" smooth="yes"/>
      <point x="81" y="-142"/>
      <point x="85" y="-141"/>
      <point x="90" y="-138" type="curve"/>
      <point x="90" y="0" type="line"/>
      <point x="83" y="-3"/>
      <point x="74" y="-5"/>
      <point x="64" y="-5" type="curve" smooth="yes"/>
      <point x="44" y="-5"/>
      <point x="28" y="0"/>
      <point x="15" y="14" type="curve"/>
      <point x="15" y="480" type="line"/>
      <point x="60" y="480" type="line"/>
      <point x="60" y="37" type="line"/>
      <point x="65" y="34"/>
      <point x="69" y="33"/>
      <point x="75" y="33" type="curve" smooth="yes"/>
      <point x="81" y="33"/>
      <point x="85" y="34"/>
      <point x="90" y="37" type="curve"/>
      <point x="90" y="480" type="line"/>
      <point x="135" y="480" type="line"/>
    </contour>
  </outline>
</glyph>
<glyph name="z" format="1">
  <advance width="116"/>
  <unicode hex="007A"/>
  <outline>
    <contour>
      <point x="107" y="0" type="line"/>
      <point x="9" y="0" type="line"/>
      <point x="9" y="33" type="line"/>
      <point x="64" y="442" type="line"/>
      <point x="10" y="442" type="line"/>
      <point x="10" y="480" type="line"/>
      <point x="106" y="480" type="line"/>
      <point x="106" y="448" type="line"/>
      <point x="52" y="38" type="line"/>
      <point x="107" y="38" type="line"/>
    </contour>
  </outline>
</glyph>
<glyph name="braceleft" format="1">
  <advance width="125"/>
  <unicode hex="007B"/>
  <outline>
    <contour>
      <point x="115" y="-3" type="line"/>
      <point x="76" y="-3"/>
      <point x="50" y="9"/>
      <point x="35" y="32" type="curve"/>
      <point x="35" y="340" type="line"/>
      <point x="30" y="347"/>
      <point x="19" y="353"/>
      <point x="3" y="353" type="curve"/>
      <point x="3" y="391" type="line"/>
      <point x="19" y="391"/>
      <point x="30" y="397"/>
      <point x="35" y="404" type="curve"/>
      <point x="35" y="688" type="line"/>
      <point x="50" y="711"/>
      <point x="76" y="723"/>
      <point x="115" y="723" type="curve"/>
      <point x="115" y="680" type="line"/>
      <point x="102" y="680"/>
      <point x="89" y="677"/>
      <point x="80" y="668" type="curve"/>
      <point x="80" y="394" type="line"/>
      <point x="72" y="384"/>
      <point x="59" y="376"/>
      <point x="46" y="372" type="curve"/>
      <point x="59" y="368"/>
      <point x="72" y="360"/>
      <point x="80" y="350" type="curve"/>
      <point x="80" y="52" type="line"/>
      <point x="89" y="43"/>
      <point x="102" y="40"/>
      <point x="115" y="40" type="curve"/>
    </contour>
  </outline>
</glyph>
<glyph name="bar" format="1">
  <advance width="75"/>
  <unicode hex="007C"/>
  <outline>
    <contour>
      <point x="59" y="-75" type="line"/>
      <point x="16" y="-75" type="line"/>
      <point x="16" y="795" type="line"/>
      <point x="59" y="795" type="line"/>
    </contour>
  </outline>
</glyph>
<glyph name="braceright" format="1">
  <advance width="125"/>
  <unicode hex="007D"/>
  <outline>
    <contour>
      <point x="122" y="353" type="line"/>
      <point x="106" y="353"/>
      <point x="95" y="347"/>
      <point x="90" y="340" type="curve"/>
      <point x="90" y="32" type="line"/>
      <point x="75" y="9"/>
      <point x="49" y="-3"/>
      <point x="10" y="-3" type="curve"/>
      <point x="10" y="40" type="line"/>
      <point x="23" y="40"/>
      <point x="36" y="43"/>
      <point x="45" y="52" type="curve"/>
      <point x="45" y="350" type="line"/>
      <point x="53" y="360"/>
      <point x="66" y="368"/>
      <point x="79" y="372" type="curve"/>
      <point x="66" y="376"/>
      <point x="53" y="384"/>
      <point x="45" y="394" type="curve"/>
      <point x="45" y="668" type="line"/>
      <point x="36" y="677"/>
      <point x="23" y="680"/>
      <point x="10" y="680" type="curve"/>
      <point x="10" y="723" type="line"/>
      <point x="49" y="723"/>
      <point x="75" y="711"/>
      <point x="90" y="688" type="curve"/>
      <point x="90" y="404" type="line"/>
      <point x="95" y="397"/>
      <point x="106" y="391"/>
      <point x="122" y="391" type="curve"/>
    </contour>
  </outline>
</glyph>
<glyph name="asciitilde" format="1">
  <advance width="150"/>
  <unicode hex="007E"/>
  <outline>
    <contour>
      <point x="135" y="318" type="line"/>
      <point x="99" y="318" type="line"/>
      <point x="50" y="379" type="line"/>
      <point x="50" y="318" type="line"/>
      <point x="15" y="318" type="line"/>
      <point x="15" y="428" type="line"/>
      <point x="51" y="428" type="line"/>
      <point x="100" y="367" type="line"/>
      <point x="100" y="428" type="line"/>
      <point x="135" y="428" type="line"/>
    </contour>
  </outline>
</glyph>
<glyph name="exclamdown" format="1">
  <advance width="75"/>
  <unicode hex="00A1"/>
  <outline>
    <contour>
      <point x="60" y="610" type="line"/>
      <point x="15" y="610" type="line"/>
      <point x="15" y="720" type="line"/>
      <point x="60" y="720" type="line"/>
    </contour>
    <contour>
      <point x="60" y="0" type="line"/>
      <point x="15" y="0" type="line"/>
      <point x="15" y="565" type="line"/>
      <point x="60" y="565" type="line"/>
    </contour>
  </outline>
</glyph>
<glyph name="cent" format="1">
  <advance width="150"/>
  <unicode hex="00A2"/>
  <outline>
    <contour>
      <point x="135" y="137" type="line"/>
      <point x="123" y="126"/>
      <point x="109" y="120"/>
      <point x="95" y="118" type="curve"/>
      <point x="95" y="0" type="line"/>
      <point x="55" y="0" type="line"/>
      <point x="55" y="118" type="line"/>
      <point x="41" y="120"/>
      <point x="27" y="126"/>
      <point x="15" y="137" type="curve"/>
      <point x="15" y="585" type="line"/>
      <point x="27" y="596"/>
      <point x="41" y="602"/>
      <point x="55" y="604" type="curve"/>
      <point x="55" y="720" type="line"/>
      <point x="95" y="720" type="line"/>
      <point x="95" y="604" type="line"/>
      <point x="109" y="602"/>
      <point x="123" y="596"/>
      <point x="135" y="585" type="curve"/>
      <point x="135" y="426" type="line"/>
      <point x="90" y="426" type="line"/>
      <point x="90" y="564" type="line"/>
      <point x="85" y="567"/>
      <point x="81" y="568"/>
      <point x="75" y="568" type="curve" smooth="yes"/>
      <point x="69" y="568"/>
      <point x="65" y="567"/>
      <point x="60" y="564" type="curve"/>
      <point x="60" y="158" type="line"/>
      <point x="65" y="155"/>
      <point x="69" y="154"/>
      <point x="75" y="154" type="curve" smooth="yes"/>
      <point x="81" y="154"/>
      <point x="85" y="155"/>
      <point x="90" y="158" type="curve"/>
      <point x="90" y="296" type="line"/>
      <point x="135" y="296" type="line"/>
    </contour>
  </outline>
</glyph>
<glyph name="yen" format="1">
  <advance width="150"/>
  <unicode hex="00A5"/>
  <outline>
    <contour>
      <point x="135" y="315" type="line"/>
      <point x="124" y="305"/>
      <point x="110" y="299"/>
      <point x="97" y="296" type="curve"/>
      <point x="97" y="175" type="line"/>
      <point x="133" y="175" type="line"/>
      <point x="133" y="132" type="line"/>
      <point x="97" y="132" type="line"/>
      <point x="97" y="0" type="line"/>
      <point x="54" y="0" type="line"/>
      <point x="54" y="132" type="line"/>
      <point x="18" y="132" type="line"/>
      <point x="18" y="175" type="line"/>
      <point x="54" y="175" type="line"/>
      <point x="54" y="296" type="line"/>
      <point x="41" y="299"/>
      <point x="27" y="305"/>
      <point x="15" y="315" type="curve"/>
      <point x="15" y="720" type="line"/>
      <point x="60" y="720" type="line"/>
      <point x="60" y="336" type="line"/>
      <point x="65" y="333"/>
      <point x="69" y="332"/>
      <point x="75" y="332" type="curve" smooth="yes"/>
      <point x="81" y="332"/>
      <point x="85" y="333"/>
      <point x="90" y="336" type="curve"/>
      <point x="90" y="720" type="line"/>
      <point x="135" y="720" type="line"/>
    </contour>
  </outline>
</glyph>
<glyph name="section" format="1">
  <advance width="150"/>
  <unicode hex="00A7"/>
  <outline>
    <contour>
      <point x="135" y="-159" type="line"/>
      <point x="117" y="-175"/>
      <point x="96" y="-180"/>
      <point x="75" y="-180" type="curve" smooth="yes"/>
      <point x="54" y="-180"/>
      <point x="33" y="-175"/>
      <point x="15" y="-159" type="curve"/>
      <point x="15" y="67" type="line"/>
      <point x="60" y="67" type="line"/>
      <point x="60" y="-138" type="line"/>
      <point x="65" y="-141"/>
      <point x="69" y="-142"/>
      <point x="75" y="-142" type="curve" smooth="yes"/>
      <point x="81" y="-142"/>
      <point x="85" y="-141"/>
      <point x="90" y="-138" type="curve"/>
      <point x="90" y="71" type="line"/>
      <point x="63" y="105" type="line"/>
      <point x="63" y="105" type="line"/>
      <point x="46" y="107"/>
      <point x="30" y="113"/>
      <point x="15" y="126" type="curve"/>
      <point x="15" y="419" type="line"/>
      <point x="23" y="426"/>
      <point x="32" y="431"/>
      <point x="42" y="435" type="curve"/>
      <point x="15" y="466" type="line"/>
      <point x="15" y="704" type="line"/>
      <point x="33" y="720"/>
      <point x="54" y="725"/>
      <point x="75" y="725" type="curve" smooth="yes"/>
      <point x="96" y="725"/>
      <point x="117" y="720"/>
      <point x="135" y="704" type="curve"/>
      <point x="135" y="478" type="line"/>
      <point x="90" y="478" type="line"/>
      <point x="90" y="683" type="line"/>
      <point x="85" y="686"/>
      <point x="81" y="687"/>
      <point x="75" y="687" type="curve" smooth="yes"/>
      <point x="69" y="687"/>
      <point x="65" y="686"/>
      <point x="60" y="683" type="curve"/>
      <point x="60" y="474" type="line"/>
      <point x="87" y="439" type="line"/>
      <point x="87" y="439" type="line"/>
      <point x="104" y="438"/>
      <point x="120" y="432"/>
      <point x="135" y="419" type="curve"/>
      <point x="135" y="126" type="line"/>
      <point x="127" y="119"/>
      <point x="118" y="114"/>
      <point x="108" y="110" type="curve"/>
      <point x="135" y="79" type="line"/>
    </contour>
    <contour>
      <point x="90" y="145" type="curve"/>
      <point x="90" y="400" type="line"/>
      <point x="85" y="403"/>
      <point x="81" y="404"/>
      <point x="75" y="404" type="curve" smooth="yes"/>
      <point x="69" y="404"/>
      <point x="65" y="403"/>
      <point x="60" y="400" type="curve"/>
      <point x="60" y="145" type="line"/>
      <point x="65" y="142"/>
      <point x="69" y="141"/>
      <point x="75" y="141" type="curve" smooth="yes"/>
      <point x="81" y="141"/>
      <point x="85" y="142"/>
    </contour>
  </outline>
</glyph>
<glyph name="dieresis" format="1">
  <advance width="150"/>
  <unicode hex="00A8"/>
  <outline>
    <contour>
      <point x="135" y="515" type="line"/>
      <point x="93" y="515" type="line"/>
      <point x="93" y="625" type="line"/>
      <point x="135" y="625" type="line"/>
    </contour>
    <contour>
      <point x="57" y="515" type="line"/>
      <point x="15" y="515" type="line"/>
      <point x="15" y="625" type="line"/>
      <point x="57" y="625" type="line"/>
    </contour>
  </outline>
</glyph>
<glyph name="copyright" format="1">
  <advance width="310"/>
  <unicode hex="00A9"/>
  <outline>
    <contour>
      <point x="295" y="40" type="line"/>
      <point x="257" y="7"/>
      <point x="205" y="-5"/>
      <point x="155" y="-5" type="curve" smooth="yes"/>
      <point x="105" y="-5"/>
      <point x="53" y="7"/>
      <point x="15" y="40" type="curve"/>
      <point x="15" y="680" type="line"/>
      <point x="53" y="713"/>
      <point x="105" y="725"/>
      <point x="155" y="725" type="curve" smooth="yes"/>
      <point x="205" y="725"/>
      <point x="257" y="713"/>
      <point x="295" y="680" type="curve"/>
    </contour>
    <contour>
      <point x="251" y="63" type="curve"/>
      <point x="251" y="657" type="line"/>
      <point x="218" y="676"/>
      <point x="188" y="683"/>
      <point x="155" y="683" type="curve" smooth="yes"/>
      <point x="122" y="683"/>
      <point x="92" y="676"/>
      <point x="60" y="657" type="curve"/>
      <point x="60" y="63" type="line"/>
      <point x="92" y="44"/>
      <point x="122" y="37"/>
      <point x="155" y="37" type="curve" smooth="yes"/>
      <point x="188" y="37"/>
      <point x="218" y="44"/>
    </contour>
    <contour>
      <point x="215" y="92" type="line"/>
      <point x="197" y="76"/>
      <point x="176" y="71"/>
      <point x="155" y="71" type="curve" smooth="yes"/>
      <point x="134" y="71"/>
      <point x="113" y="76"/>
      <point x="95" y="92" type="curve"/>
      <point x="95" y="628" type="line"/>
      <point x="113" y="644"/>
      <point x="134" y="649"/>
      <point x="155" y="649" type="curve" smooth="yes"/>
      <point x="176" y="649"/>
      <point x="197" y="644"/>
      <point x="215" y="628" type="curve"/>
      <point x="215" y="448" type="line"/>
      <point x="170" y="448" type="line"/>
      <point x="170" y="607" type="line"/>
      <point x="165" y="610"/>
      <point x="161" y="611"/>
      <point x="155" y="611" type="curve" smooth="yes"/>
      <point x="149" y="611"/>
      <point x="145" y="610"/>
      <point x="140" y="607" type="curve"/>
      <point x="140" y="113" type="line"/>
      <point x="145" y="110"/>
      <point x="149" y="109"/>
      <point x="155" y="109" type="curve" smooth="yes"/>
      <point x="161" y="109"/>
      <point x="165" y="110"/>
      <point x="170" y="113" type="curve"/>
      <point x="170" y="272" type="line"/>
      <point x="215" y="272" type="line"/>
    </contour>
  </outline>
</glyph>
<glyph name="ordfeminine" format="1">
  <advance width="150"/>
  <unicode hex="00AA"/>
  <outline>
    <contour>
      <point x="135" y="326" type="line"/>
      <point x="117" y="310"/>
      <point x="96" y="305"/>
      <point x="75" y="305" type="curve" smooth="yes"/>
      <point x="54" y="305"/>
      <point x="33" y="310"/>
      <point x="15" y="326" type="curve"/>
      <point x="15" y="531" type="line"/>
      <point x="28" y="545"/>
      <point x="44" y="550"/>
      <point x="64" y="550" type="curve" smooth="yes"/>
      <point x="74" y="550"/>
      <point x="83" y="548"/>
      <point x="90" y="545" type="curve"/>
      <point x="90" y="683" type="line"/>
      <point x="85" y="686"/>
      <point x="81" y="687"/>
      <point x="75" y="687" type="curve" smooth="yes"/>
      <point x="69" y="687"/>
      <point x="65" y="686"/>
      <point x="60" y="683" type="curve"/>
      <point x="60" y="595" type="line"/>
      <point x="15" y="595" type="line"/>
      <point x="15" y="704" type="line"/>
      <point x="33" y="720"/>
      <point x="54" y="725"/>
      <point x="75" y="725" type="curve" smooth="yes"/>
      <point x="96" y="725"/>
      <point x="117" y="720"/>
      <point x="135" y="704" type="curve"/>
    </contour>
    <contour>
      <point x="90" y="347" type="curve"/>
      <point x="90" y="508" type="line"/>
      <point x="85" y="511"/>
      <point x="81" y="512"/>
      <point x="75" y="512" type="curve" smooth="yes"/>
      <point x="69" y="512"/>
      <point x="65" y="511"/>
      <point x="60" y="508" type="curve"/>
      <point x="60" y="347" type="line"/>
      <point x="65" y="344"/>
      <point x="69" y="343"/>
      <point x="75" y="343" type="curve" smooth="yes"/>
      <point x="81" y="343"/>
      <point x="85" y="344"/>
    </contour>
  </outline>
</glyph>
<glyph name="guillemotleft" format="1">
  <advance width="163"/>
  <unicode hex="00AB"/>
  <outline>
    <contour>
      <point x="155" y="70" type="line"/>
      <point x="74" y="213" type="line"/>
      <point x="74" y="268" type="line"/>
      <point x="155" y="410" type="line"/>
      <point x="155" y="334" type="line"/>
      <point x="101" y="240" type="line"/>
      <point x="155" y="147" type="line"/>
    </contour>
    <contour>
      <point x="84" y="70" type="line"/>
      <point x="3" y="213" type="line"/>
      <point x="3" y="268" type="line"/>
      <point x="84" y="410" type="line"/>
      <point x="84" y="334" type="line"/>
      <point x="30" y="240" type="line"/>
      <point x="84" y="147" type="line"/>
    </contour>
  </outline>
</glyph>
<glyph name="macron" format="1">
  <advance width="150"/>
  <unicode hex="00AF"/>
  <unicode hex="02C9"/>
  <outline>
    <contour>
      <point x="135" y="515" type="line"/>
      <point x="15" y="515" type="line"/>
      <point x="15" y="557" type="line"/>
      <point x="135" y="557" type="line"/>
    </contour>
  </outline>
</glyph>
<glyph name="degree" format="1">
  <advance width="144"/>
  <unicode hex="00B0"/>
  <outline>
    <contour>
      <point x="129" y="351" type="line"/>
      <point x="113" y="335"/>
      <point x="94" y="330"/>
      <point x="72" y="330" type="curve" smooth="yes"/>
      <point x="50" y="330"/>
      <point x="31" y="335"/>
      <point x="15" y="351" type="curve"/>
      <point x="15" y="704" type="line"/>
      <point x="31" y="720"/>
      <point x="50" y="725"/>
      <point x="72" y="725" type="curve" smooth="yes"/>
      <point x="94" y="725"/>
      <point x="113" y="720"/>
      <point x="129" y="704" type="curve"/>
    </contour>
    <contour>
      <point x="87" y="370" type="curve"/>
      <point x="87" y="685" type="line"/>
      <point x="82" y="688"/>
      <point x="78" y="689"/>
      <point x="72" y="689" type="curve" smooth="yes"/>
      <point x="66" y="689"/>
      <point x="62" y="688"/>
      <point x="57" y="685" type="curve"/>
      <point x="57" y="370" type="line"/>
      <point x="62" y="367"/>
      <point x="66" y="366"/>
      <point x="72" y="366" type="curve" smooth="yes"/>
      <point x="78" y="366"/>
      <point x="82" y="367"/>
    </contour>
  </outline>
</glyph>
<glyph name="acute" format="1">
  <advance width="150"/>
  <unicode hex="00B4"/>
  <outline>
    <contour>
      <point x="119" y="625" type="line"/>
      <point x="74" y="515" type="line"/>
      <point x="31" y="515" type="line"/>
      <point x="72" y="625" type="line"/>
    </contour>
  </outline>
</glyph>
<glyph name="paragraph" format="1">
  <advance width="200"/>
  <unicode hex="00B6"/>
  <outline>
    <contour>
      <point x="185" y="0" type="line"/>
      <point x="147" y="0" type="line"/>
      <point x="147" y="685" type="line"/>
      <point x="126" y="685" type="line"/>
      <point x="126" y="0" type="line"/>
      <point x="88" y="0" type="line"/>
      <point x="88" y="327" type="line"/>
      <point x="86" y="327" type="line" smooth="yes"/>
      <point x="59" y="327"/>
      <point x="31" y="337"/>
      <point x="14" y="362" type="curve"/>
      <point x="14" y="685" type="line"/>
      <point x="31" y="710"/>
      <point x="59" y="720"/>
      <point x="86" y="720" type="curve" smooth="yes"/>
      <point x="185" y="720" type="line"/>
    </contour>
    <contour>
      <point x="88" y="362" type="line"/>
      <point x="88" y="685" type="line"/>
      <point x="86" y="685" type="line" smooth="yes"/>
      <point x="74" y="685"/>
      <point x="63" y="679"/>
      <point x="58" y="672" type="curve"/>
      <point x="58" y="375" type="line"/>
      <point x="63" y="368"/>
      <point x="74" y="362"/>
      <point x="86" y="362" type="curve" smooth="yes"/>
    </contour>
  </outline>
</glyph>
<glyph name="periodcentered" format="1">
  <advance width="75"/>
  <unicode hex="00B7"/>
  <unicode hex="2219"/>
  <outline>
    <contour>
      <point x="61" y="241" type="line"/>
      <point x="15" y="241" type="line"/>
      <point x="15" y="351" type="line"/>
      <point x="61" y="351" type="line"/>
    </contour>
  </outline>
</glyph>
<glyph name="cedilla" format="1">
  <advance width="150"/>
  <unicode hex="00B8"/>
  <outline>
    <contour>
      <point x="96" y="-63" type="line"/>
      <point x="82" y="-82"/>
      <point x="64" y="-90"/>
      <point x="41" y="-90" type="curve" smooth="yes"/>
      <point x="30" y="-90" type="line"/>
      <point x="30" y="-48" type="line"/>
      <point x="34" y="-48" type="line" smooth="yes"/>
      <point x="42" y="-48"/>
      <point x="49" y="-46"/>
      <point x="55" y="-39" type="curve"/>
      <point x="55" y="10" type="line"/>
      <point x="96" y="10" type="line"/>
    </contour>
  </outline>
</glyph>
<glyph name="ordmasculine" format="1">
  <advance width="150"/>
  <unicode hex="00BA"/>
  <outline>
    <contour>
      <point x="135" y="326" type="line"/>
      <point x="117" y="310"/>
      <point x="96" y="305"/>
      <point x="75" y="305" type="curve" smooth="yes"/>
      <point x="54" y="305"/>
      <point x="33" y="310"/>
      <point x="15" y="326" type="curve"/>
      <point x="15" y="704" type="line"/>
      <point x="33" y="720"/>
      <point x="54" y="725"/>
      <point x="75" y="725" type="curve" smooth="yes"/>
      <point x="96" y="725"/>
      <point x="117" y="720"/>
      <point x="135" y="704" type="curve"/>
    </contour>
    <contour>
      <point x="90" y="347" type="curve"/>
      <point x="90" y="683" type="line"/>
      <point x="85" y="686"/>
      <point x="81" y="687"/>
      <point x="75" y="687" type="curve" smooth="yes"/>
      <point x="69" y="687"/>
      <point x="65" y="686"/>
      <point x="60" y="683" type="curve"/>
      <point x="60" y="347" type="line"/>
      <point x="65" y="344"/>
      <point x="69" y="343"/>
      <point x="75" y="343" type="curve" smooth="yes"/>
      <point x="81" y="343"/>
      <point x="85" y="344"/>
    </contour>
  </outline>
</glyph>
<glyph name="guillemotright" format="1">
  <advance width="163"/>
  <unicode hex="00BB"/>
  <outline>
    <contour>
      <point x="160" y="213" type="line"/>
      <point x="79" y="70" type="line"/>
      <point x="79" y="147" type="line"/>
      <point x="133" y="240" type="line"/>
      <point x="79" y="334" type="line"/>
      <point x="79" y="410" type="line"/>
      <point x="160" y="268" type="line"/>
    </contour>
    <contour>
      <point x="89" y="213" type="line"/>
      <point x="8" y="70" type="line"/>
      <point x="8" y="147" type="line"/>
      <point x="62" y="240" type="line"/>
      <point x="8" y="334" type="line"/>
      <point x="8" y="410" type="line"/>
      <point x="89" y="268" type="line"/>
    </contour>
  </outline>
</glyph>
<glyph name="questiondown" format="1">
  <advance width="148"/>
  <unicode hex="00BF"/>
  <outline>
    <contour>
      <point x="97" y="610" type="line"/>
      <point x="52" y="610" type="line"/>
      <point x="52" y="720" type="line"/>
      <point x="97" y="720" type="line"/>
    </contour>
    <contour>
      <point x="134" y="16" type="line"/>
      <point x="116" y="0"/>
      <point x="95" y="-5"/>
      <point x="74" y="-5" type="curve" smooth="yes"/>
      <point x="53" y="-5"/>
      <point x="32" y="0"/>
      <point x="14" y="16" type="curve"/>
      <point x="14" y="269" type="line"/>
      <point x="52" y="415" type="line"/>
      <point x="52" y="565" type="line"/>
      <point x="97" y="565" type="line"/>
      <point x="97" y="422" type="line"/>
      <point x="59" y="278" type="line"/>
      <point x="59" y="37" type="line"/>
      <point x="64" y="34"/>
      <point x="68" y="33"/>
      <point x="74" y="33" type="curve" smooth="yes"/>
      <point x="80" y="33"/>
      <point x="84" y="34"/>
      <point x="89" y="37" type="curve"/>
      <point x="89" y="272" type="line"/>
      <point x="134" y="272" type="line"/>
    </contour>
  </outline>
</glyph>
<glyph name="Aring" format="1">
  <advance width="150"/>
  <unicode hex="00C5"/>
  <outline>
    <contour>
      <point x="135" y="0" type="line"/>
      <point x="90" y="0" type="line"/>
      <point x="90" y="349" type="line"/>
      <point x="60" y="349" type="line"/>
      <point x="60" y="0" type="line"/>
      <point x="15" y="0" type="line"/>
      <point x="15" y="704" type="line"/>
      <point x="33" y="720"/>
      <point x="54" y="725"/>
      <point x="75" y="725" type="curve" smooth="yes"/>
      <point x="96" y="725"/>
      <point x="117" y="720"/>
      <point x="135" y="704" type="curve"/>
    </contour>
    <contour>
      <point x="90" y="392" type="line"/>
      <point x="90" y="683" type="line"/>
      <point x="85" y="686"/>
      <point x="81" y="687"/>
      <point x="75" y="687" type="curve" smooth="yes"/>
      <point x="69" y="687"/>
      <point x="65" y="686"/>
      <point x="60" y="683" type="curve"/>
      <point x="60" y="392" type="line"/>
    </contour>
    <contour>
      <point x="135" y="766" type="line"/>
      <point x="117" y="750"/>
      <point x="96" y="745"/>
      <point x="75" y="745" type="curve" smooth="yes"/>
      <point x="54" y="745"/>
      <point x="33" y="750"/>
      <point x="15" y="766" type="curve"/>
      <point x="15" y="834" type="line"/>
      <point x="33" y="850"/>
      <point x="54" y="855"/>
      <point x="75" y="855" type="curve" smooth="yes"/>
      <point x="96" y="855"/>
      <point x="117" y="850"/>
      <point x="135" y="834" type="curve"/>
    </contour>
    <contour>
      <point x="98" y="780" type="curve"/>
      <point x="98" y="820" type="line"/>
      <point x="90" y="824"/>
      <point x="83" y="825"/>
      <point x="75" y="825" type="curve" smooth="yes"/>
      <point x="67" y="825"/>
      <point x="60" y="824"/>
      <point x="52" y="820" type="curve"/>
      <point x="52" y="780" type="line"/>
      <point x="60" y="776"/>
      <point x="67" y="775"/>
      <point x="75" y="775" type="curve" smooth="yes"/>
      <point x="83" y="775"/>
      <point x="90" y="776"/>
    </contour>
  </outline>
</glyph>
<glyph name="Ccedilla" format="1">
  <advance width="150"/>
  <unicode hex="00C7"/>
  <outline>
    <contour>
      <point x="135" y="16" type="line"/>
      <point x="124" y="6"/>
      <point x="111" y="0"/>
      <point x="98" y="-3" type="curve"/>
      <point x="98" y="-63" type="line"/>
      <point x="84" y="-82"/>
      <point x="62" y="-90"/>
      <point x="39" y="-90" type="curve" smooth="yes"/>
      <point x="28" y="-90" type="line"/>
      <point x="28" y="-48" type="line"/>
      <point x="32" y="-48" type="line" smooth="yes"/>
      <point x="40" y="-48"/>
      <point x="47" y="-46"/>
      <point x="53" y="-39" type="curve"/>
      <point x="53" y="-3" type="line"/>
      <point x="40" y="0"/>
      <point x="27" y="6"/>
      <point x="15" y="16" type="curve"/>
      <point x="15" y="704" type="line"/>
      <point x="33" y="720"/>
      <point x="54" y="725"/>
      <point x="75" y="725" type="curve" smooth="yes"/>
      <point x="96" y="725"/>
      <point x="117" y="720"/>
      <point x="135" y="704" type="curve"/>
      <point x="135" y="448" type="line"/>
      <point x="90" y="448" type="line"/>
      <point x="90" y="683" type="line"/>
      <point x="85" y="686"/>
      <point x="81" y="687"/>
      <point x="75" y="687" type="curve" smooth="yes"/>
      <point x="69" y="687"/>
      <point x="65" y="686"/>
      <point x="60" y="683" type="curve"/>
      <point x="60" y="37" type="line"/>
      <point x="65" y="34"/>
      <point x="69" y="33"/>
      <point x="75" y="33" type="curve" smooth="yes"/>
      <point x="81" y="33"/>
      <point x="85" y="34"/>
      <point x="90" y="37" type="curve"/>
      <point x="90" y="272" type="line"/>
      <point x="135" y="272" type="line"/>
    </contour>
  </outline>
</glyph>
<glyph name="Eth" format="1">
  <advance width="150"/>
  <unicode hex="00D0"/>
  <outline>
    <contour>
      <point x="135" y="35" type="line"/>
      <point x="118" y="10"/>
      <point x="90" y="0"/>
      <point x="63" y="0" type="curve" smooth="yes"/>
      <point x="15" y="0" type="line"/>
      <point x="15" y="349" type="line"/>
      <point x="0" y="349" type="line"/>
      <point x="0" y="392" type="line"/>
      <point x="15" y="392" type="line"/>
      <point x="15" y="720" type="line"/>
      <point x="63" y="720" type="line" smooth="yes"/>
      <point x="90" y="720"/>
      <point x="118" y="710"/>
      <point x="135" y="685" type="curve"/>
    </contour>
    <contour>
      <point x="90" y="51" type="curve"/>
      <point x="90" y="669" type="line"/>
      <point x="85" y="676"/>
      <point x="74" y="682"/>
      <point x="62" y="682" type="curve" smooth="yes"/>
      <point x="60" y="682" type="line"/>
      <point x="60" y="392" type="line"/>
      <point x="75" y="392" type="line"/>
      <point x="75" y="349" type="line"/>
      <point x="60" y="349" type="line"/>
      <point x="60" y="38" type="line"/>
      <point x="62" y="38" type="line" smooth="yes"/>
      <point x="74" y="38"/>
      <point x="85" y="44"/>
    </contour>
  </outline>
</glyph>
<glyph name="Oslash" format="1">
  <advance width="150"/>
  <unicode hex="00D8"/>
  <outline>
    <contour>
      <point x="135" y="16" type="line"/>
      <point x="117" y="0"/>
      <point x="96" y="-5"/>
      <point x="75" y="-5" type="curve" smooth="yes"/>
      <point x="74" y="-5"/>
      <point x="73" y="-5"/>
      <point x="71" y="-5" type="curve"/>
      <point x="65" y="-75" type="line"/>
      <point x="25" y="-75" type="line"/>
      <point x="32" y="5" type="line"/>
      <point x="26" y="8"/>
      <point x="20" y="11"/>
      <point x="15" y="16" type="curve"/>
      <point x="15" y="704" type="line"/>
      <point x="33" y="720"/>
      <point x="54" y="725"/>
      <point x="75" y="725" type="curve" smooth="yes"/>
      <point x="76" y="725"/>
      <point x="77" y="725"/>
      <point x="78" y="725" type="curve"/>
      <point x="85" y="795" type="line"/>
      <point x="125" y="795" type="line"/>
      <point x="117" y="716" type="line"/>
      <point x="123" y="713"/>
      <point x="129" y="709"/>
      <point x="135" y="704" type="curve"/>
    </contour>
    <contour>
      <point x="90" y="37" type="curve"/>
      <point x="90" y="683" type="line"/>
      <point x="85" y="686"/>
      <point x="81" y="687"/>
      <point x="75" y="687" type="curve" smooth="yes"/>
      <point x="69" y="687"/>
      <point x="65" y="686"/>
      <point x="60" y="683" type="curve"/>
      <point x="60" y="37" type="line"/>
      <point x="65" y="34"/>
      <point x="69" y="33"/>
      <point x="75" y="33" type="curve" smooth="yes"/>
      <point x="81" y="33"/>
      <point x="85" y="34"/>
    </contour>
  </outline>
</glyph>
<glyph name="Thorn" format="1">
  <advance width="149"/>
  <unicode hex="00DE"/>
  <outline>
    <contour>
      <point x="135" y="190" type="line"/>
      <point x="118" y="165"/>
      <point x="90" y="155"/>
      <point x="63" y="155" type="curve" smooth="yes"/>
      <point x="60" y="155" type="line"/>
      <point x="60" y="0" type="line"/>
      <point x="15" y="0" type="line"/>
      <point x="15" y="720" type="line"/>
      <point x="60" y="720" type="line"/>
      <point x="60" y="585" type="line"/>
      <point x="63" y="585" type="line" smooth="yes"/>
      <point x="90" y="585"/>
      <point x="118" y="575"/>
      <point x="135" y="550" type="curve"/>
    </contour>
    <contour>
      <point x="90" y="206" type="curve"/>
      <point x="90" y="534" type="line"/>
      <point x="85" y="541"/>
      <point x="74" y="547"/>
      <point x="62" y="547" type="curve" smooth="yes"/>
      <point x="60" y="547" type="line"/>
      <point x="60" y="193" type="line"/>
      <point x="62" y="193" type="line" smooth="yes"/>
      <point x="74" y="193"/>
      <point x="85" y="199"/>
    </contour>
  </outline>
</glyph>
<glyph name="germandbls" format="1">
  <advance width="150"/>
  <unicode hex="00DF"/>
  <outline>
    <contour>
      <point x="135" y="19" type="line"/>
      <point x="121" y="5"/>
      <point x="100" y="-1"/>
      <point x="74" y="-1" type="curve"/>
      <point x="74" y="39" type="line"/>
      <point x="80" y="39"/>
      <point x="87" y="41"/>
      <point x="90" y="44" type="curve"/>
      <point x="90" y="339" type="line"/>
      <point x="85" y="346"/>
      <point x="74" y="352"/>
      <point x="62" y="352" type="curve" smooth="yes"/>
      <point x="60" y="352" type="line"/>
      <point x="60" y="0" type="line"/>
      <point x="15" y="0" type="line"/>
      <point x="15" y="704" type="line"/>
      <point x="33" y="720"/>
      <point x="54" y="725"/>
      <point x="75" y="725" type="curve" smooth="yes"/>
      <point x="96" y="725"/>
      <point x="116" y="720"/>
      <point x="134" y="704" type="curve"/>
      <point x="134" y="393" type="line"/>
      <point x="126" y="383"/>
      <point x="114" y="375"/>
      <point x="101" y="371" type="curve"/>
      <point x="114" y="367"/>
      <point x="126" y="359"/>
      <point x="135" y="349" type="curve"/>
    </contour>
    <contour>
      <point x="89" y="403" type="curve"/>
      <point x="89" y="683" type="line"/>
      <point x="84" y="686"/>
      <point x="81" y="687"/>
      <point x="75" y="687" type="curve" smooth="yes"/>
      <point x="69" y="687"/>
      <point x="65" y="686"/>
      <point x="60" y="683" type="curve"/>
      <point x="60" y="390" type="line"/>
      <point x="62" y="390" type="line" smooth="yes"/>
      <point x="74" y="390"/>
      <point x="84" y="396"/>
    </contour>
  </outline>
</glyph>
<glyph name="ccedilla" format="1">
  <advance width="150"/>
  <unicode hex="00E7"/>
  <outline>
    <contour>
      <point x="135" y="16" type="line"/>
      <point x="123" y="5"/>
      <point x="110" y="0"/>
      <point x="96" y="-3" type="curve"/>
      <point x="96" y="-63" type="line"/>
      <point x="82" y="-82"/>
      <point x="64" y="-90"/>
      <point x="41" y="-90" type="curve" smooth="yes"/>
      <point x="30" y="-90" type="line"/>
      <point x="30" y="-48" type="line"/>
      <point x="34" y="-48" type="line" smooth="yes"/>
      <point x="42" y="-48"/>
      <point x="49" y="-46"/>
      <point x="55" y="-39" type="curve"/>
      <point x="55" y="-3" type="line"/>
      <point x="41" y="-1"/>
      <point x="27" y="5"/>
      <point x="15" y="16" type="curve"/>
      <point x="15" y="464" type="line"/>
      <point x="33" y="480"/>
      <point x="54" y="485"/>
      <point x="75" y="485" type="curve" smooth="yes"/>
      <point x="96" y="485"/>
      <point x="117" y="480"/>
      <point x="135" y="464" type="curve"/>
      <point x="135" y="305" type="line"/>
      <point x="90" y="305" type="line"/>
      <point x="90" y="443" type="line"/>
      <point x="85" y="446"/>
      <point x="81" y="447"/>
      <point x="75" y="447" type="curve" smooth="yes"/>
      <point x="69" y="447"/>
      <point x="65" y="446"/>
      <point x="60" y="443" type="curve"/>
      <point x="60" y="37" type="line"/>
      <point x="65" y="34"/>
      <point x="69" y="33"/>
      <point x="75" y="33" type="curve" smooth="yes"/>
      <point x="81" y="33"/>
      <point x="85" y="34"/>
      <point x="90" y="37" type="curve"/>
      <point x="90" y="175" type="line"/>
      <point x="135" y="175" type="line"/>
    </contour>
  </outline>
</glyph>
<glyph name="oslash" format="1">
  <advance width="150"/>
  <unicode hex="00F8"/>
  <outline>
    <contour>
      <point x="135" y="16" type="line"/>
      <point x="117" y="0"/>
      <point x="96" y="-5"/>
      <point x="75" y="-5" type="curve" smooth="yes"/>
      <point x="75" y="-5"/>
      <point x="75" y="-5"/>
      <point x="74" y="-5" type="curve"/>
      <point x="68" y="-75" type="line"/>
      <point x="28" y="-75" type="line"/>
      <point x="35" y="3" type="line"/>
      <point x="28" y="6"/>
      <point x="21" y="10"/>
      <point x="15" y="16" type="curve"/>
      <point x="15" y="464" type="line"/>
      <point x="33" y="480"/>
      <point x="54" y="485"/>
      <point x="75" y="485" type="curve" smooth="yes"/>
      <point x="75" y="485"/>
      <point x="75" y="485"/>
      <point x="76" y="485" type="curve"/>
      <point x="82" y="550" type="line"/>
      <point x="122" y="550" type="line"/>
      <point x="114" y="477" type="line"/>
      <point x="121" y="474"/>
      <point x="128" y="470"/>
      <point x="135" y="464" type="curve"/>
    </contour>
    <contour>
      <point x="90" y="37" type="curve"/>
      <point x="90" y="443" type="line"/>
      <point x="85" y="446"/>
      <point x="81" y="447"/>
      <point x="75" y="447" type="curve" smooth="yes"/>
      <point x="69" y="447"/>
      <point x="65" y="446"/>
      <point x="60" y="443" type="curve"/>
      <point x="60" y="37" type="line"/>
      <point x="65" y="34"/>
      <point x="69" y="33"/>
      <point x="75" y="33" type="curve" smooth="yes"/>
      <point x="81" y="33"/>
      <point x="85" y="34"/>
    </contour>
  </outline>
</glyph>
<glyph name="dotlessi" format="1">
  <advance width="75"/>
  <unicode hex="0131"/>
  <outline>
    <contour>
      <point x="60" y="0" type="line"/>
      <point x="15" y="0" type="line"/>
      <point x="15" y="480" type="line"/>
      <point x="60" y="480" type="line"/>
    </contour>
  </outline>
</glyph>
<glyph name="Lslash" format="1">
  <advance width="120"/>
  <unicode hex="0141"/>
  <outline>
    <contour>
      <point x="115" y="0" type="line"/>
      <point x="25" y="0" type="line"/>
      <point x="25" y="332" type="line"/>
      <point x="0" y="320" type="line"/>
      <point x="0" y="369" type="line"/>
      <point x="25" y="382" type="line"/>
      <point x="25" y="720" type="line"/>
      <point x="70" y="720" type="line"/>
      <point x="70" y="404" type="line"/>
      <point x="95" y="417" type="line"/>
      <point x="95" y="368" type="line"/>
      <point x="70" y="355" type="line"/>
      <point x="70" y="38" type="line"/>
      <point x="115" y="38" type="line"/>
    </contour>
  </outline>
</glyph>
<glyph name="lslash" format="1">
  <advance width="95"/>
  <unicode hex="0142"/>
  <outline>
    <contour>
      <point x="95" y="368" type="line"/>
      <point x="70" y="355" type="line"/>
      <point x="70" y="0" type="line"/>
      <point x="25" y="0" type="line"/>
      <point x="25" y="332" type="line"/>
      <point x="0" y="320" type="line"/>
      <point x="0" y="369" type="line"/>
      <point x="25" y="382" type="line"/>
      <point x="25" y="720" type="line"/>
      <point x="70" y="720" type="line"/>
      <point x="70" y="404" type="line"/>
      <point x="95" y="417" type="line"/>
    </contour>
  </outline>
</glyph>
<glyph name="OE" format="1">
  <advance width="225"/>
  <unicode hex="0152"/>
  <outline>
    <contour>
      <point x="210" y="16" type="line"/>
      <point x="192" y="0"/>
      <point x="171" y="-5"/>
      <point x="150" y="-5" type="curve" smooth="yes"/>
      <point x="137" y="-5"/>
      <point x="125" y="-3"/>
      <point x="112" y="2" type="curve"/>
      <point x="100" y="-3"/>
      <point x="88" y="-5"/>
      <point x="75" y="-5" type="curve" smooth="yes"/>
      <point x="54" y="-5"/>
      <point x="33" y="0"/>
      <point x="15" y="16" type="curve"/>
      <point x="15" y="704" type="line"/>
      <point x="33" y="720"/>
      <point x="54" y="725"/>
      <point x="75" y="725" type="curve" smooth="yes"/>
      <point x="88" y="725"/>
      <point x="100" y="723"/>
      <point x="112" y="718" type="curve"/>
      <point x="124" y="723"/>
      <point x="137" y="725"/>
      <point x="150" y="725" type="curve" smooth="yes"/>
      <point x="171" y="725"/>
      <point x="192" y="720"/>
      <point x="210" y="704" type="curve"/>
      <point x="210" y="448" type="line"/>
      <point x="165" y="448" type="line"/>
      <point x="165" y="683" type="line"/>
      <point x="160" y="686"/>
      <point x="156" y="687"/>
      <point x="150" y="687" type="curve" smooth="yes"/>
      <point x="144" y="687"/>
      <point x="140" y="686"/>
      <point x="135" y="683" type="curve"/>
      <point x="135" y="392" type="line"/>
      <point x="190" y="392" type="line"/>
      <point x="190" y="349" type="line"/>
      <point x="135" y="349" type="line"/>
      <point x="135" y="37" type="line"/>
      <point x="140" y="34"/>
      <point x="144" y="33"/>
      <point x="150" y="33" type="curve" smooth="yes"/>
      <point x="156" y="33"/>
      <point x="160" y="34"/>
      <point x="165" y="37" type="curve"/>
      <point x="165" y="272" type="line"/>
      <point x="210" y="272" type="line"/>
    </contour>
    <contour>
      <point x="90" y="37" type="curve"/>
      <point x="90" y="683" type="line"/>
      <point x="85" y="686"/>
      <point x="81" y="687"/>
      <point x="75" y="687" type="curve" smooth="yes"/>
      <point x="69" y="687"/>
      <point x="65" y="686"/>
      <point x="60" y="683" type="curve"/>
      <point x="60" y="37" type="line"/>
      <point x="65" y="34"/>
      <point x="69" y="33"/>
      <point x="75" y="33" type="curve" smooth="yes"/>
      <point x="81" y="33"/>
      <point x="85" y="34"/>
    </contour>
  </outline>
</glyph>
<glyph name="oe" format="1">
  <advance width="225"/>
  <unicode hex="0153"/>
  <outline>
    <contour>
      <point x="210" y="16" type="line"/>
      <point x="192" y="0"/>
      <point x="171" y="-5"/>
      <point x="150" y="-5" type="curve" smooth="yes"/>
      <point x="137" y="-5"/>
      <point x="125" y="-3"/>
      <point x="112" y="2" type="curve"/>
      <point x="100" y="-3"/>
      <point x="88" y="-5"/>
      <point x="75" y="-5" type="curve" smooth="yes"/>
      <point x="54" y="-5"/>
      <point x="33" y="0"/>
      <point x="15" y="16" type="curve"/>
      <point x="15" y="464" type="line"/>
      <point x="33" y="480"/>
      <point x="54" y="485"/>
      <point x="75" y="485" type="curve" smooth="yes"/>
      <point x="88" y="485"/>
      <point x="100" y="483"/>
      <point x="112" y="478" type="curve"/>
      <point x="124" y="483"/>
      <point x="137" y="485"/>
      <point x="150" y="485" type="curve" smooth="yes"/>
      <point x="171" y="485"/>
      <point x="192" y="480"/>
      <point x="210" y="464" type="curve"/>
      <point x="210" y="233" type="line"/>
      <point x="135" y="233" type="line"/>
      <point x="135" y="37" type="line"/>
      <point x="140" y="34"/>
      <point x="144" y="33"/>
      <point x="150" y="33" type="curve" smooth="yes"/>
      <point x="156" y="33"/>
      <point x="160" y="34"/>
      <point x="165" y="37" type="curve"/>
      <point x="165" y="175" type="line"/>
      <point x="210" y="175" type="line"/>
    </contour>
    <contour>
      <point x="165" y="272" type="line"/>
      <point x="165" y="443" type="line"/>
      <point x="160" y="446"/>
      <point x="156" y="447"/>
      <point x="150" y="447" type="curve" smooth="yes"/>
      <point x="144" y="447"/>
      <point x="140" y="446"/>
      <point x="135" y="443" type="curve"/>
      <point x="135" y="272" type="line"/>
    </contour>
    <contour>
      <point x="90" y="37" type="curve"/>
      <point x="90" y="443" type="line"/>
      <point x="85" y="446"/>
      <point x="81" y="447"/>
      <point x="75" y="447" type="curve" smooth="yes"/>
      <point x="69" y="447"/>
      <point x="65" y="446"/>
      <point x="60" y="443" type="curve"/>
      <point x="60" y="37" type="line"/>
      <point x="65" y="34"/>
      <point x="69" y="33"/>
      <point x="75" y="33" type="curve" smooth="yes"/>
      <point x="81" y="33"/>
      <point x="85" y="34"/>
    </contour>
  </outline>
</glyph>
<glyph name="florin" format="1">
  <advance width="118"/>
  <unicode hex="0192"/>
  <outline>
    <contour>
      <point x="110" y="678" type="line"/>
      <point x="95" y="678" type="line" smooth="yes"/>
      <point x="84" y="678"/>
      <point x="69" y="675"/>
      <point x="60" y="666" type="curve"/>
      <point x="60" y="480" type="line"/>
      <point x="105" y="480" type="line"/>
      <point x="105" y="438" type="line"/>
      <point x="60" y="438" type="line"/>
      <point x="60" y="-140" type="line"/>
      <point x="46" y="-161"/>
      <point x="20" y="-175"/>
      <point x="-13" y="-175" type="curve" smooth="yes"/>
      <point x="-35" y="-175" type="line"/>
      <point x="-35" y="-133" type="line"/>
      <point x="-20" y="-133" type="line" smooth="yes"/>
      <point x="-9" y="-133"/>
      <point x="6" y="-130"/>
      <point x="15" y="-121" type="curve"/>
      <point x="15" y="438" type="line"/>
      <point x="15" y="438" type="line"/>
      <point x="15" y="480" type="line"/>
      <point x="15" y="480" type="line"/>
      <point x="15" y="685" type="line"/>
      <point x="29" y="706"/>
      <point x="55" y="720"/>
      <point x="88" y="720" type="curve" smooth="yes"/>
      <point x="110" y="720" type="line"/>
    </contour>
  </outline>
</glyph>
<glyph name="circumflex" format="1">
  <advance width="150"/>
  <unicode hex="02C6"/>
  <outline>
    <contour>
      <point x="135" y="515" type="line"/>
      <point x="94" y="515" type="line"/>
      <point x="75" y="586" type="line"/>
      <point x="56" y="515" type="line"/>
      <point x="15" y="515" type="line"/>
      <point x="50" y="625" type="line"/>
      <point x="101" y="625" type="line"/>
    </contour>
  </outline>
</glyph>
<glyph name="caron" format="1">
  <advance width="150"/>
  <unicode hex="02C7"/>
  <outline>
    <contour>
      <point x="135" y="625" type="line"/>
      <point x="101" y="515" type="line"/>
      <point x="50" y="515" type="line"/>
      <point x="15" y="625" type="line"/>
      <point x="56" y="625" type="line"/>
      <point x="75" y="554" type="line"/>
      <point x="94" y="625" type="line"/>
    </contour>
  </outline>
</glyph>
<glyph name="breve" format="1">
  <advance width="150"/>
  <unicode hex="02D8"/>
  <outline>
    <contour>
      <point x="135" y="536" type="line"/>
      <point x="117" y="520"/>
      <point x="96" y="515"/>
      <point x="75" y="515" type="curve" smooth="yes"/>
      <point x="54" y="515"/>
      <point x="33" y="520"/>
      <point x="15" y="536" type="curve"/>
      <point x="15" y="625" type="line"/>
      <point x="60" y="625" type="line"/>
      <point x="60" y="557" type="line"/>
      <point x="65" y="554"/>
      <point x="69" y="553"/>
      <point x="75" y="553" type="curve" smooth="yes"/>
      <point x="81" y="553"/>
      <point x="85" y="554"/>
      <point x="90" y="557" type="curve"/>
      <point x="90" y="625" type="line"/>
      <point x="135" y="625" type="line"/>
    </contour>
  </outline>
</glyph>
<glyph name="dotaccent" format="1">
  <advance width="150"/>
  <unicode hex="02D9"/>
  <outline>
    <contour>
      <point x="96" y="515" type="line"/>
      <point x="54" y="515" type="line"/>
      <point x="54" y="625" type="line"/>
      <point x="96" y="625" type="line"/>
    </contour>
  </outline>
</glyph>
<glyph name="ring" format="1">
  <advance width="150"/>
  <unicode hex="02DA"/>
  <outline>
    <contour>
      <point x="135" y="536" type="line"/>
      <point x="117" y="520"/>
      <point x="96" y="515"/>
      <point x="75" y="515" type="curve" smooth="yes"/>
      <point x="54" y="515"/>
      <point x="33" y="520"/>
      <point x="15" y="536" type="curve"/>
      <point x="15" y="604" type="line"/>
      <point x="33" y="620"/>
      <point x="54" y="625"/>
      <point x="75" y="625" type="curve" smooth="yes"/>
      <point x="96" y="625"/>
      <point x="117" y="620"/>
      <point x="135" y="604" type="curve"/>
    </contour>
    <contour>
      <point x="98" y="550" type="curve"/>
      <point x="98" y="590" type="line"/>
      <point x="90" y="594"/>
      <point x="83" y="595"/>
      <point x="75" y="595" type="curve" smooth="yes"/>
      <point x="67" y="595"/>
      <point x="60" y="594"/>
      <point x="52" y="590" type="curve"/>
      <point x="52" y="550" type="line"/>
      <point x="60" y="546"/>
      <point x="67" y="545"/>
      <point x="75" y="545" type="curve" smooth="yes"/>
      <point x="83" y="545"/>
      <point x="90" y="546"/>
    </contour>
  </outline>
</glyph>
<glyph name="ogonek" format="1">
  <advance width="150"/>
  <unicode hex="02DB"/>
  <outline>
    <contour>
      <point x="121" y="-90" type="line"/>
      <point x="110" y="-90" type="line" smooth="yes"/>
      <point x="87" y="-90"/>
      <point x="69" y="-82"/>
      <point x="55" y="-63" type="curve"/>
      <point x="55" y="10" type="line"/>
      <point x="96" y="10" type="line"/>
      <point x="96" y="-39" type="line"/>
      <point x="102" y="-46"/>
      <point x="109" y="-48"/>
      <point x="117" y="-48" type="curve" smooth="yes"/>
      <point x="121" y="-48" type="line"/>
    </contour>
  </outline>
</glyph>
<glyph name="tilde" format="1">
  <advance width="150"/>
  <unicode hex="02DC"/>
  <outline>
    <contour>
      <point x="135" y="515" type="line"/>
      <point x="99" y="515" type="line"/>
      <point x="50" y="576" type="line"/>
      <point x="50" y="515" type="line"/>
      <point x="15" y="515" type="line"/>
      <point x="15" y="625" type="line"/>
      <point x="51" y="625" type="line"/>
      <point x="100" y="564" type="line"/>
      <point x="100" y="625" type="line"/>
      <point x="135" y="625" type="line"/>
    </contour>
  </outline>
</glyph>
<glyph name="hungarumlaut" format="1">
  <advance width="150"/>
  <unicode hex="02DD"/>
  <outline>
    <contour>
      <point x="155" y="625" type="line"/>
      <point x="110" y="515" type="line"/>
      <point x="67" y="515" type="line"/>
      <point x="108" y="625" type="line"/>
    </contour>
    <contour>
      <point x="83" y="625" type="line"/>
      <point x="38" y="515" type="line"/>
      <point x="-5" y="515" type="line"/>
      <point x="36" y="625" type="line"/>
    </contour>
  </outline>
</glyph>
<glyph name="emdash" format="1">
  <advance width="175"/>
  <unicode hex="2014"/>
  <outline>
    <contour>
      <point x="170" y="296" type="line"/>
      <point x="5" y="296" type="line"/>
      <point x="5" y="339" type="line"/>
      <point x="170" y="339" type="line"/>
    </contour>
  </outline>
</glyph>
<glyph name="quoteleft" format="1">
  <advance width="75"/>
  <unicode hex="2018"/>
  <unicode hex="02BB"/>
  <outline>
    <contour>
      <point x="69" y="480" type="line"/>
      <point x="22" y="480" type="line"/>
      <point x="6" y="720" type="line"/>
      <point x="53" y="720" type="line"/>
    </contour>
  </outline>
</glyph>
<glyph name="quoteright" format="1">
  <advance width="75"/>
  <unicode hex="2019"/>
  <unicode hex="02BC"/>
  <outline>
    <contour>
      <point x="69" y="720" type="line"/>
      <point x="53" y="480" type="line"/>
      <point x="6" y="480" type="line"/>
      <point x="22" y="720" type="line"/>
    </contour>
  </outline>
</glyph>
<glyph name="quotesinglbase" format="1">
  <advance width="75"/>
  <unicode hex="201A"/>
  <outline>
    <contour>
      <point x="66" y="150" type="line"/>
      <point x="50" y="-90" type="line"/>
      <point x="3" y="-90" type="line"/>
      <point x="19" y="150" type="line"/>
    </contour>
  </outline>
</glyph>
<glyph name="quotedblleft" format="1">
  <advance width="150"/>
  <unicode hex="201C"/>
  <outline>
    <contour>
      <point x="144" y="480" type="line"/>
      <point x="97" y="480" type="line"/>
      <point x="81" y="720" type="line"/>
      <point x="128" y="720" type="line"/>
    </contour>
    <contour>
      <point x="69" y="480" type="line"/>
      <point x="22" y="480" type="line"/>
      <point x="6" y="720" type="line"/>
      <point x="53" y="720" type="line"/>
    </contour>
  </outline>
</glyph>
<glyph name="quotedblright" format="1">
  <advance width="150"/>
  <unicode hex="201D"/>
  <outline>
    <contour>
      <point x="144" y="720" type="line"/>
      <point x="128" y="480" type="line"/>
      <point x="81" y="480" type="line"/>
      <point x="97" y="720" type="line"/>
    </contour>
    <contour>
      <point x="69" y="720" type="line"/>
      <point x="53" y="480" type="line"/>
      <point x="6" y="480" type="line"/>
      <point x="22" y="720" type="line"/>
    </contour>
  </outline>
</glyph>
<glyph name="quotedblbase" format="1">
  <advance width="150"/>
  <unicode hex="201E"/>
  <outline>
    <contour>
      <point x="141" y="150" type="line"/>
      <point x="125" y="-90" type="line"/>
      <point x="78" y="-90" type="line"/>
      <point x="94" y="150" type="line"/>
    </contour>
    <contour>
      <point x="66" y="150" type="line"/>
      <point x="50" y="-90" type="line"/>
      <point x="3" y="-90" type="line"/>
      <point x="19" y="150" type="line"/>
    </contour>
  </outline>
</glyph>
<glyph name="dagger" format="1">
  <advance width="125"/>
  <unicode hex="2020"/>
  <outline>
    <contour>
      <point x="120" y="437" type="line"/>
      <point x="85" y="437" type="line"/>
      <point x="85" y="0" type="line"/>
      <point x="40" y="0" type="line"/>
      <point x="40" y="437" type="line"/>
      <point x="5" y="437" type="line"/>
      <point x="5" y="480" type="line"/>
      <point x="40" y="480" type="line"/>
      <point x="40" y="720" type="line"/>
      <point x="85" y="720" type="line"/>
      <point x="85" y="480" type="line"/>
      <point x="120" y="480" type="line"/>
    </contour>
  </outline>
</glyph>
<glyph name="daggerdbl" format="1">
  <advance width="125"/>
  <unicode hex="2021"/>
  <outline>
    <contour>
      <point x="120" y="250" type="line"/>
      <point x="85" y="250" type="line"/>
      <point x="85" y="0" type="line"/>
      <point x="40" y="0" type="line"/>
      <point x="40" y="250" type="line"/>
      <point x="5" y="250" type="line"/>
      <point x="5" y="293" type="line"/>
      <point x="40" y="293" type="line"/>
      <point x="40" y="437" type="line"/>
      <point x="5" y="437" type="line"/>
      <point x="5" y="480" type="line"/>
      <point x="40" y="480" type="line"/>
      <point x="40" y="720" type="line"/>
      <point x="85" y="720" type="line"/>
      <point x="85" y="480" type="line"/>
      <point x="120" y="480" type="line"/>
      <point x="120" y="437" type="line"/>
      <point x="85" y="437" type="line"/>
      <point x="85" y="293" type="line"/>
      <point x="120" y="293" type="line"/>
    </contour>
  </outline>
</glyph>
<glyph name="bullet" format="1">
  <advance width="150"/>
  <unicode hex="2022"/>
  <outline>
    <contour>
      <point x="135" y="224" type="line"/>
      <point x="117" y="208"/>
      <point x="96" y="203"/>
      <point x="75" y="203" type="curve" smooth="yes"/>
      <point x="54" y="203"/>
      <point x="33" y="208"/>
      <point x="15" y="224" type="curve"/>
      <point x="15" y="523" type="line"/>
      <point x="33" y="539"/>
      <point x="54" y="544"/>
      <point x="75" y="544" type="curve" smooth="yes"/>
      <point x="96" y="544"/>
      <point x="117" y="539"/>
      <point x="135" y="523" type="curve"/>
    </contour>
  </outline>
</glyph>
<glyph name="ellipsis" format="1">
  <advance width="225"/>
  <unicode hex="2026"/>
  <outline>
    <contour>
      <point x="211" y="0" type="line"/>
      <point x="165" y="0" type="line"/>
      <point x="165" y="110" type="line"/>
      <point x="211" y="110" type="line"/>
    </contour>
    <contour>
      <point x="136" y="0" type="line"/>
      <point x="90" y="0" type="line"/>
      <point x="90" y="110" type="line"/>
      <point x="136" y="110" type="line"/>
    </contour>
    <contour>
      <point x="61" y="0" type="line"/>
      <point x="15" y="0" type="line"/>
      <point x="15" y="110" type="line"/>
      <point x="61" y="110" type="line"/>
    </contour>
  </outline>
</glyph>
<glyph name="perthousand" format="1">
  <advance width="470"/>
  <unicode hex="2030"/>
  <outline>
    <contour>
      <point x="129" y="351" type="line"/>
      <point x="113" y="335"/>
      <point x="94" y="330"/>
      <point x="72" y="330" type="curve" smooth="yes"/>
      <point x="50" y="330"/>
      <point x="31" y="335"/>
      <point x="15" y="351" type="curve"/>
      <point x="15" y="704" type="line"/>
      <point x="31" y="720"/>
      <point x="50" y="725"/>
      <point x="72" y="725" type="curve" smooth="yes"/>
      <point x="94" y="725"/>
      <point x="113" y="720"/>
      <point x="129" y="704" type="curve"/>
    </contour>
    <contour>
      <point x="458" y="16" type="line"/>
      <point x="442" y="0"/>
      <point x="423" y="-5"/>
      <point x="401" y="-5" type="curve" smooth="yes"/>
      <point x="379" y="-5"/>
      <point x="360" y="0"/>
      <point x="344" y="16" type="curve"/>
      <point x="344" y="369" type="line"/>
      <point x="360" y="385"/>
      <point x="379" y="390"/>
      <point x="401" y="390" type="curve" smooth="yes"/>
      <point x="423" y="390"/>
      <point x="442" y="385"/>
      <point x="458" y="369" type="curve"/>
    </contour>
    <contour>
      <point x="217" y="720" type="line"/>
      <point x="154" y="0" type="line"/>
      <point x="117" y="0" type="line"/>
      <point x="180" y="720" type="line"/>
    </contour>
    <contour>
      <point x="319" y="16" type="line"/>
      <point x="303" y="0"/>
      <point x="284" y="-5"/>
      <point x="262" y="-5" type="curve" smooth="yes"/>
      <point x="240" y="-5"/>
      <point x="221" y="0"/>
      <point x="205" y="16" type="curve"/>
      <point x="205" y="369" type="line"/>
      <point x="221" y="385"/>
      <point x="240" y="390"/>
      <point x="262" y="390" type="curve" smooth="yes"/>
      <point x="284" y="390"/>
      <point x="303" y="385"/>
      <point x="319" y="369" type="curve"/>
    </contour>
    <contour>
      <point x="87" y="370" type="curve"/>
      <point x="87" y="685" type="line"/>
      <point x="82" y="688"/>
      <point x="78" y="689"/>
      <point x="72" y="689" type="curve" smooth="yes"/>
      <point x="66" y="689"/>
      <point x="62" y="688"/>
      <point x="57" y="685" type="curve"/>
      <point x="57" y="370" type="line"/>
      <point x="62" y="367"/>
      <point x="66" y="366"/>
      <point x="72" y="366" type="curve" smooth="yes"/>
      <point x="78" y="366"/>
      <point x="82" y="367"/>
    </contour>
    <contour>
      <point x="416" y="35" type="curve"/>
      <point x="416" y="350" type="line"/>
      <point x="411" y="353"/>
      <point x="407" y="354"/>
      <point x="401" y="354" type="curve" smooth="yes"/>
      <point x="395" y="354"/>
      <point x="391" y="353"/>
      <point x="386" y="350" type="curve"/>
      <point x="386" y="35" type="line"/>
      <point x="391" y="32"/>
      <point x="395" y="31"/>
      <point x="401" y="31" type="curve" smooth="yes"/>
      <point x="407" y="31"/>
      <point x="411" y="32"/>
    </contour>
    <contour>
      <point x="277" y="35" type="curve"/>
      <point x="277" y="350" type="line"/>
      <point x="272" y="353"/>
      <point x="268" y="354"/>
      <point x="262" y="354" type="curve" smooth="yes"/>
      <point x="256" y="354"/>
      <point x="252" y="353"/>
      <point x="247" y="350" type="curve"/>
      <point x="247" y="35" type="line"/>
      <point x="252" y="32"/>
      <point x="256" y="31"/>
      <point x="262" y="31" type="curve" smooth="yes"/>
      <point x="268" y="31"/>
      <point x="272" y="32"/>
    </contour>
  </outline>
</glyph>
<glyph name="guilsinglleft" format="1">
  <advance width="92"/>
  <unicode hex="2039"/>
  <outline>
    <contour>
      <point x="84" y="70" type="line"/>
      <point x="3" y="213" type="line"/>
      <point x="3" y="268" type="line"/>
      <point x="84" y="410" type="line"/>
      <point x="84" y="334" type="line"/>
      <point x="30" y="240" type="line"/>
      <point x="84" y="147" type="line"/>
    </contour>
  </outline>
</glyph>
<glyph name="guilsinglright" format="1">
  <advance width="92"/>
  <unicode hex="203A"/>
  <outline>
    <contour>
      <point x="89" y="213" type="line"/>
      <point x="8" y="70" type="line"/>
      <point x="8" y="147" type="line"/>
      <point x="62" y="240" type="line"/>
      <point x="8" y="334" type="line"/>
      <point x="8" y="410" type="line"/>
      <point x="89" y="268" type="line"/>
    </contour>
  </outline>
</glyph>
<glyph name="Euro" format="1">
  <advance width="150"/>
  <unicode hex="20AC"/>
  <outline>
    <contour>
      <point x="60" y="373" type="line"/>
      <point x="60" y="348" type="line"/>
      <point x="115" y="348" type="line"/>
      <point x="115" y="305" type="line"/>
      <point x="60" y="305" type="line"/>
      <point x="60" y="37" type="line"/>
      <point x="65" y="34"/>
      <point x="69" y="33"/>
      <point x="75" y="33" type="curve" smooth="yes"/>
      <point x="81" y="33"/>
      <point x="85" y="34"/>
      <point x="90" y="37" type="curve"/>
      <point x="90" y="270" type="line"/>
      <point x="135" y="270" type="line"/>
      <point x="135" y="16" type="line"/>
      <point x="117" y="0"/>
      <point x="96" y="-5"/>
      <point x="75" y="-5" type="curve" smooth="yes"/>
      <point x="54" y="-5"/>
      <point x="33" y="0"/>
      <point x="15" y="16" type="curve"/>
      <point x="15" y="704" type="line"/>
      <point x="33" y="720"/>
      <point x="54" y="725"/>
      <point x="75" y="725" type="curve" smooth="yes"/>
      <point x="96" y="725"/>
      <point x="117" y="720"/>
      <point x="135" y="704" type="curve"/>
      <point x="135" y="450" type="line"/>
      <point x="90" y="450" type="line"/>
      <point x="90" y="683" type="line"/>
      <point x="85" y="686"/>
      <point x="81" y="687"/>
      <point x="75" y="687" type="curve" smooth="yes"/>
      <point x="69" y="687"/>
      <point x="65" y="686"/>
      <point x="60" y="683" type="curve"/>
      <point x="60" y="415" type="line"/>
      <point x="115" y="415" type="line"/>
      <point x="115" y="373" type="line"/>
    </contour>
  </outline>
</glyph>
<glyph name="uni2117" format="1">
  <advance width="310"/>
  <unicode hex="2117"/>
  <outline>
    <contour>
      <point x="295" y="40" type="line"/>
      <point x="257" y="7"/>
      <point x="205" y="-5"/>
      <point x="155" y="-5" type="curve" smooth="yes"/>
      <point x="105" y="-5"/>
      <point x="53" y="7"/>
      <point x="15" y="40" type="curve"/>
      <point x="15" y="680" type="line"/>
      <point x="53" y="713"/>
      <point x="105" y="725"/>
      <point x="155" y="725" type="curve" smooth="yes"/>
      <point x="205" y="725"/>
      <point x="257" y="713"/>
      <point x="295" y="680" type="curve"/>
    </contour>
    <contour>
      <point x="251" y="63" type="curve"/>
      <point x="251" y="657" type="line"/>
      <point x="218" y="676"/>
      <point x="188" y="683"/>
      <point x="155" y="683" type="curve" smooth="yes"/>
      <point x="122" y="683"/>
      <point x="92" y="676"/>
      <point x="60" y="657" type="curve"/>
      <point x="60" y="63" type="line"/>
      <point x="92" y="44"/>
      <point x="122" y="37"/>
      <point x="155" y="37" type="curve" smooth="yes"/>
      <point x="188" y="37"/>
      <point x="218" y="44"/>
    </contour>
    <contour>
      <point x="215" y="362" type="line"/>
      <point x="198" y="337"/>
      <point x="170" y="327"/>
      <point x="143" y="327" type="curve" smooth="yes"/>
      <point x="140" y="327" type="line"/>
      <point x="140" y="85" type="line"/>
      <point x="95" y="85" type="line"/>
      <point x="95" y="643" type="line"/>
      <point x="143" y="643" type="line" smooth="yes"/>
      <point x="170" y="643"/>
      <point x="198" y="633"/>
      <point x="215" y="608" type="curve"/>
    </contour>
    <contour>
      <point x="170" y="378" type="curve"/>
      <point x="170" y="592" type="line"/>
      <point x="165" y="599"/>
      <point x="154" y="605"/>
      <point x="142" y="605" type="curve" smooth="yes"/>
      <point x="140" y="605" type="line"/>
      <point x="140" y="365" type="line"/>
      <point x="142" y="365" type="line" smooth="yes"/>
      <point x="154" y="365"/>
      <point x="165" y="371"/>
    </contour>
  </outline>
</glyph>
<glyph name="trademark" format="1">
  <advance width="340"/>
  <unicode hex="2122"/>
  <outline>
    <contour>
      <point x="325" y="305" type="line"/>
      <point x="280" y="305" type="line"/>
      <point x="280" y="681" type="line"/>
      <point x="272" y="685"/>
      <point x="261" y="687"/>
      <point x="250" y="688" type="curve"/>
      <point x="250" y="305" type="line"/>
      <point x="205" y="305" type="line"/>
      <point x="205" y="688" type="line"/>
      <point x="194" y="687"/>
      <point x="183" y="685"/>
      <point x="175" y="681" type="curve"/>
      <point x="175" y="305" type="line"/>
      <point x="130" y="305" type="line"/>
      <point x="130" y="704" type="line"/>
      <point x="157" y="719"/>
      <point x="191" y="725"/>
      <point x="228" y="725" type="curve" smooth="yes"/>
      <point x="265" y="725"/>
      <point x="299" y="719"/>
      <point x="325" y="704" type="curve"/>
    </contour>
    <contour>
      <point x="113" y="682" type="line"/>
      <point x="80" y="682" type="line"/>
      <point x="80" y="305" type="line"/>
      <point x="35" y="305" type="line"/>
      <point x="35" y="682" type="line"/>
      <point x="3" y="682" type="line"/>
      <point x="3" y="720" type="line"/>
      <point x="113" y="720" type="line"/>
    </contour>
  </outline>
</glyph>
<glyph name="radical" format="1">
  <advance width="150"/>
  <unicode hex="221A"/>
  <outline>
    <contour>
      <point x="145" y="720" type="line"/>
      <point x="90" y="0" type="line"/>
      <point x="35" y="0" type="line"/>
      <point x="5" y="311" type="line"/>
      <point x="48" y="311" type="line"/>
      <point x="63" y="73" type="line"/>
      <point x="100" y="720" type="line"/>
    </contour>
  </outline>
</glyph>
<glyph name="apple" format="1">
  <advance width="150"/>
  <unicode hex="F8FF"/>
  <outline>
    <contour>
      <point x="135" y="448" type="line"/>
      <point x="90" y="448" type="line"/>
      <point x="90" y="683" type="line"/>
      <point x="85" y="686"/>
      <point x="81" y="687"/>
      <point x="75" y="687" type="curve" smooth="yes"/>
      <point x="69" y="687"/>
      <point x="65" y="686"/>
      <point x="60" y="683" type="curve"/>
      <point x="60" y="448" type="line"/>
      <point x="15" y="448" type="line"/>
      <point x="15" y="704" type="line"/>
      <point x="33" y="720"/>
      <point x="54" y="725"/>
      <point x="75" y="725" type="curve" smooth="yes"/>
      <point x="96" y="725"/>
      <point x="117" y="720"/>
      <point x="135" y="704" type="curve"/>
    </contour>
    <contour>
      <point x="135" y="344" type="line"/>
      <point x="93" y="344" type="line"/>
      <point x="93" y="297" type="line"/>
      <point x="58" y="297" type="line"/>
      <point x="58" y="344" type="line"/>
      <point x="15" y="344" type="line"/>
      <point x="15" y="377" type="line"/>
      <point x="58" y="377" type="line"/>
      <point x="58" y="423" type="line"/>
      <point x="93" y="423" type="line"/>
      <point x="93" y="377" type="line"/>
      <point x="135" y="377" type="line"/>
    </contour>
    <contour>
      <point x="135" y="16" type="line"/>
      <point x="117" y="0"/>
      <point x="96" y="-5"/>
      <point x="75" y="-5" type="curve" smooth="yes"/>
      <point x="54" y="-5"/>
      <point x="33" y="0"/>
      <point x="15" y="16" type="curve"/>
      <point x="15" y="272" type="line"/>
      <point x="60" y="272" type="line"/>
      <point x="60" y="37" type="line"/>
      <point x="65" y="34"/>
      <point x="69" y="33"/>
      <point x="75" y="33" type="curve" smooth="yes"/>
      <point x="81" y="33"/>
      <point x="85" y="34"/>
      <point x="90" y="37" type="curve"/>
      <point x="90" y="272" type="line"/>
      <point x="135" y="272" type="line"/>
    </contour>
  </outline>
</glyph>
<glyph name="fi" format="1">
  <advance width="185"/>
  <unicode hex="FB01"/>
  <outline>
    <contour>
      <point x="171" y="610" type="line"/>
      <point x="125" y="610" type="line"/>
      <point x="125" y="720" type="line"/>
      <point x="171" y="720" type="line"/>
    </contour>
    <contour>
      <point x="110" y="678" type="line"/>
      <point x="95" y="678" type="line" smooth="yes"/>
      <point x="84" y="678"/>
      <point x="69" y="675"/>
      <point x="60" y="666" type="curve"/>
      <point x="60" y="480" type="line"/>
      <point x="105" y="480" type="line"/>
      <point x="105" y="438" type="line"/>
      <point x="60" y="438" type="line"/>
      <point x="60" y="0" type="line"/>
      <point x="15" y="0" type="line"/>
      <point x="15" y="438" type="line"/>
      <point x="15" y="438" type="line"/>
      <point x="15" y="480" type="line"/>
      <point x="15" y="480" type="line"/>
      <point x="15" y="685" type="line"/>
      <point x="29" y="706"/>
      <point x="55" y="720"/>
      <point x="88" y="720" type="curve" smooth="yes"/>
      <point x="110" y="720" type="line"/>
    </contour>
    <contour>
      <point x="170" y="0" type="line"/>
      <point x="125" y="0" type="line"/>
      <point x="125" y="480" type="line"/>
      <point x="170" y="480" type="line"/>
    </contour>
  </outline>
</glyph>
<glyph name="registered" format="1">
  <advance width="310"/>
  <outline>
    <contour>
      <point x="295" y="40" type="line"/>
      <point x="257" y="7"/>
      <point x="205" y="-5"/>
      <point x="155" y="-5" type="curve" smooth="yes"/>
      <point x="105" y="-5"/>
      <point x="53" y="7"/>
      <point x="15" y="40" type="curve"/>
      <point x="15" y="680" type="line"/>
      <point x="53" y="713"/>
      <point x="105" y="725"/>
      <point x="155" y="725" type="curve" smooth="yes"/>
      <point x="205" y="725"/>
      <point x="257" y="713"/>
      <point x="295" y="680" type="curve"/>
    </contour>
    <contour>
      <point x="251" y="63" type="curve"/>
      <point x="251" y="657" type="line"/>
      <point x="218" y="676"/>
      <point x="188" y="683"/>
      <point x="155" y="683" type="curve" smooth="yes"/>
      <point x="122" y="683"/>
      <point x="92" y="676"/>
      <point x="60" y="657" type="curve"/>
      <point x="60" y="63" type="line"/>
      <point x="92" y="44"/>
      <point x="122" y="37"/>
      <point x="155" y="37" type="curve" smooth="yes"/>
      <point x="188" y="37"/>
      <point x="218" y="44"/>
    </contour>
    <contour>
      <point x="216" y="85" type="line"/>
      <point x="171" y="85" type="line"/>
      <point x="171" y="350" type="line"/>
      <point x="166" y="357"/>
      <point x="155" y="363"/>
      <point x="143" y="363" type="curve" smooth="yes"/>
      <point x="141" y="363" type="line"/>
      <point x="141" y="85" type="line"/>
      <point x="96" y="85" type="line"/>
      <point x="96" y="643" type="line"/>
      <point x="143" y="643" type="line" smooth="yes"/>
      <point x="170" y="643"/>
      <point x="198" y="635"/>
      <point x="215" y="610" type="curve"/>
      <point x="215" y="404" type="line"/>
      <point x="207" y="394"/>
      <point x="195" y="386"/>
      <point x="182" y="382" type="curve"/>
      <point x="195" y="378"/>
      <point x="207" y="370"/>
      <point x="216" y="360" type="curve"/>
    </contour>
    <contour>
      <point x="170" y="414" type="curve"/>
      <point x="170" y="594" type="line"/>
      <point x="165" y="601"/>
      <point x="154" y="605"/>
      <point x="143" y="605" type="curve" smooth="yes"/>
      <point x="141" y="605" type="line"/>
      <point x="141" y="401" type="line"/>
      <point x="143" y="401" type="line" smooth="yes"/>
      <point x="155" y="401"/>
      <point x="165" y="407"/>
    </contour>
  </outline>
</glyph>
